<?xml version="1.0" standalone="no"?>
<!DOCTYPE svg PUBLIC "-//W3C//DTD SVG 20010904//EN"
 "http://www.w3.org/TR/2001/REC-SVG-20010904/DTD/svg10.dtd">
<svg version="1.0" xmlns="http://www.w3.org/2000/svg"
 width="1080.000000pt" height="1080.000000pt" viewBox="0 0 1080.000000 1080.000000"
 preserveAspectRatio="xMidYMid meet">
<metadata>
Created by potrace 1.16, written by Peter Selinger 2001-2019
</metadata>
<g transform="translate(0.000000,1080.000000) scale(0.100000,-0.100000)"
fill="#000000" stroke="none">
<path d="M5275 8536 c-44 -23 -102 -55 -130 -71 -27 -15 -60 -33 -72 -39 -13
-6 -23 -14 -23 -18 0 -5 -6 -8 -13 -8 -12 0 -360 -226 -398 -258 -8 -7 -52
-40 -98 -75 -46 -34 -96 -71 -110 -82 -47 -35 -206 -167 -216 -179 -5 -6 -32
-29 -60 -51 -107 -86 -530 -508 -598 -599 -12 -15 -31 -38 -42 -50 -11 -11
-44 -50 -73 -86 -71 -87 -73 -89 -107 -135 -16 -22 -32 -42 -35 -45 -3 -3 -23
-30 -45 -60 -22 -30 -42 -57 -45 -60 -14 -12 -182 -283 -217 -350 -63 -119
-138 -309 -163 -410 -24 -98 -60 -265 -60 -282 0 -16 11 -18 113 -18 l113 0
13 63 c28 129 67 266 106 367 39 102 161 340 184 360 3 3 28 38 55 79 27 41
52 79 57 85 5 6 32 40 59 76 66 86 60 78 105 135 22 27 48 59 58 70 10 11 28
33 40 48 82 106 404 438 542 559 27 23 61 54 75 68 14 14 48 43 75 65 28 21
57 46 65 55 8 8 33 28 55 45 22 16 42 32 45 35 3 3 23 19 45 35 22 17 42 32
45 35 14 14 202 152 255 186 33 21 62 41 65 44 14 14 70 50 79 50 5 0 11 4 13
8 4 9 206 132 218 132 5 0 10 4 12 8 2 4 29 20 60 36 l56 29 44 -22 c24 -11
63 -34 88 -51 25 -16 48 -30 52 -30 7 0 64 -36 253 -159 39 -25 72 -48 75 -51
3 -3 32 -23 65 -45 32 -22 66 -45 75 -52 85 -65 216 -168 220 -173 3 -3 22
-18 44 -34 21 -16 53 -41 70 -57 208 -184 272 -243 396 -368 163 -164 300
-315 405 -446 21 -28 42 -52 45 -55 3 -3 18 -23 35 -45 16 -22 32 -42 35 -45
3 -3 23 -30 45 -60 22 -30 43 -59 47 -65 24 -31 102 -152 125 -192 46 -84 133
-262 133 -273 0 -6 4 -18 9 -28 27 -47 92 -281 105 -375 l7 -48 117 3 c98 3
116 5 114 18 -2 8 -8 35 -12 60 -10 50 -23 106 -40 165 -6 22 -16 58 -21 80
-5 22 -23 76 -40 120 -18 44 -37 93 -43 110 -28 73 -150 302 -217 406 -88 137
-274 384 -374 495 -5 6 -39 45 -75 85 -88 100 -416 429 -515 515 -143 126
-163 143 -212 181 -15 12 -37 30 -48 40 -11 10 -38 31 -60 48 -22 16 -46 35
-53 42 -7 7 -16 13 -20 13 -4 0 -19 10 -34 23 -50 42 -63 52 -93 71 -17 11
-35 25 -42 31 -6 7 -35 27 -65 46 -29 18 -55 36 -58 40 -3 3 -27 19 -55 34
-27 16 -52 32 -55 36 -7 9 -181 114 -260 157 -120 65 -199 102 -217 101 -10 0
-54 -20 -98 -43z"/>
<path d="M5291 8253 l-21 -18 26 -37 c23 -32 24 -39 13 -51 -21 -20 -99 -63
-131 -70 -26 -7 -28 -5 -34 33 -7 44 -13 47 -49 24 -19 -13 -23 -21 -18 -45
l6 -29 -52 0 c-71 0 -118 -30 -154 -99 -25 -46 -22 -44 -44 -30 -16 9 -25 8
-48 -7 l-27 -18 25 -22 26 -22 -30 -23 c-16 -13 -53 -36 -82 -51 -51 -26 -52
-27 -59 -7 -7 19 -9 19 -38 4 -16 -8 -30 -22 -30 -30 0 -8 -9 -15 -20 -15 -11
0 -20 -4 -20 -8 0 -4 -12 -15 -27 -24 -16 -9 -37 -25 -48 -35 -11 -10 -42 -36
-70 -58 -27 -22 -59 -49 -71 -60 -11 -11 -49 -45 -84 -75 -126 -109 -124 -105
-84 -163 l25 -37 -20 -29 c-11 -16 -25 -40 -30 -54 -9 -24 -15 -26 -87 -29
-67 -3 -78 -1 -82 15 -2 9 -7 17 -11 17 -3 0 -50 -46 -103 -102 -103 -109
-102 -107 -82 -180 6 -19 -21 -30 -72 -30 -29 0 -40 -8 -72 -46 -20 -26 -39
-49 -43 -52 -3 -3 -18 -23 -35 -45 -36 -49 -55 -73 -71 -90 -14 -15 -17 -35
-6 -35 3 0 14 7 24 16 16 15 20 15 34 1 24 -24 37 -67 21 -67 -17 0 -143 -64
-166 -85 -9 -8 -20 -15 -24 -15 -10 0 -36 -26 -36 -36 0 -4 -6 -15 -14 -23 -8
-9 -23 -32 -34 -51 -11 -19 -28 -49 -38 -67 -10 -17 -16 -34 -14 -36 3 -3 22
-8 43 -12 28 -6 37 -4 37 6 0 8 14 38 31 68 l31 54 24 -29 c13 -16 26 -45 30
-64 l6 -35 74 3 c49 3 74 1 74 -7 0 -6 -14 -36 -31 -67 -26 -49 -28 -58 -16
-73 16 -18 47 -80 47 -93 0 -4 -30 -8 -68 -8 l-67 0 -17 -37 c-10 -21 -26 -49
-37 -63 l-19 -24 -13 27 c-7 15 -15 27 -19 27 -3 0 -13 16 -20 36 -13 33 -17
35 -55 33 -22 -1 -54 -2 -72 -1 -31 2 -32 3 -22 32 6 16 24 43 41 59 l31 30
-25 30 c-25 29 -25 29 -36 8 -41 -87 -90 -289 -107 -439 l-6 -58 55 0 c31 0
56 5 56 10 0 6 7 10 15 10 21 0 124 53 153 78 l23 20 57 -37 c31 -21 73 -44
92 -51 19 -7 40 -17 46 -22 6 -4 78 -8 158 -7 116 0 147 3 143 13 -3 8 20 25
65 46 l71 32 -5 89 c-6 98 -5 99 62 99 l38 0 -10 -37 c-6 -21 -8 -73 -6 -115
3 -45 1 -78 -5 -78 -17 0 -77 -32 -77 -42 0 -6 36 -7 93 -4 140 9 170 9 198 1
23 -6 27 -2 44 39 11 25 22 46 26 46 4 0 11 9 14 20 3 11 10 20 15 20 14 0 50
-76 50 -105 0 -25 2 -26 33 -19 35 9 37 9 179 -2 53 -3 105 -3 115 0 15 7 13
10 -17 26 -19 11 -42 19 -50 20 -12 0 -15 20 -15 120 l0 120 25 0 c14 0 35 -3
47 -6 18 -5 20 -10 12 -31 -5 -13 -9 -55 -9 -92 l0 -69 53 -24 c28 -14 62 -28
75 -32 12 -4 22 -13 22 -21 0 -11 28 -14 135 -14 74 -1 143 3 153 7 100 48
172 87 172 94 0 4 9 8 20 8 11 0 20 -4 20 -10 0 -5 42 -30 93 -55 l93 -45 142
0 c121 0 142 2 142 15 0 9 8 18 18 21 9 4 41 18 71 32 l54 27 -5 87 c-6 95 -4
98 56 98 l32 0 -1 -115 c0 -89 -3 -115 -13 -115 -18 0 -72 -32 -72 -43 0 -5
42 -6 93 -3 136 9 159 9 195 1 26 -6 32 -4 32 9 0 9 7 28 15 41 8 14 22 37 31
51 l15 25 20 -23 c11 -12 25 -41 31 -63 l11 -40 163 -3 c97 -2 164 1 164 6 0
10 -60 42 -77 42 -4 0 -8 54 -9 120 0 129 -2 125 56 114 l32 -7 -7 -82 c-6
-70 -5 -84 10 -99 16 -16 75 -45 118 -60 9 -3 17 -12 17 -19 0 -12 28 -15 145
-16 80 -1 145 2 145 7 0 4 17 14 38 21 20 8 64 31 96 53 58 38 59 38 80 20 27
-25 133 -82 152 -82 8 0 14 -4 14 -10 0 -6 27 -10 61 -10 l61 0 -6 28 c-4 15
-11 59 -15 97 -15 121 -42 226 -88 353 -18 49 -26 52 -42 14 -10 -24 -8 -35
19 -82 16 -30 30 -58 30 -62 0 -5 -32 -8 -70 -8 -58 0 -72 -3 -77 -17 -4 -10
-19 -37 -33 -60 -25 -39 -28 -40 -42 -24 -8 9 -25 36 -38 59 l-24 42 -68 0
c-39 0 -68 4 -68 10 0 9 31 60 65 107 7 9 6 16 -1 21 -11 7 -64 97 -64 109 0
3 31 3 69 1 l70 -5 12 31 c7 17 23 46 37 65 l25 34 18 -24 c10 -13 24 -43 30
-65 13 -41 13 -42 53 -36 23 2 43 6 45 8 8 7 -126 222 -135 217 -2 -2 -36 17
-76 42 -40 25 -87 48 -105 51 l-32 6 22 40 c19 34 25 38 51 34 22 -5 26 -3 19
7 -196 252 -183 238 -236 244 l-44 5 4 42 c5 44 -5 58 -148 208 -36 37 -59 48
-59 28 0 -6 -32 -10 -75 -10 -69 0 -76 2 -84 23 -5 12 -21 39 -35 60 l-27 39
21 33 c27 44 25 57 -12 90 -92 80 -194 171 -198 175 -3 3 -27 24 -55 45 -27
22 -52 42 -55 46 -19 20 -80 59 -93 59 -10 0 -17 7 -17 15 0 8 -11 22 -25 31
-24 16 -27 16 -38 0 -16 -22 -50 -10 -119 41 l-49 36 23 24 c19 20 20 26 8 34
-41 27 -48 28 -61 13 -11 -13 -15 -10 -31 25 -11 23 -33 48 -55 62 -21 13 -41
27 -44 32 -4 6 -29 7 -58 3 l-51 -7 0 37 c0 23 -6 42 -17 50 -30 22 -42 16
-49 -26 -4 -22 -12 -40 -18 -40 -13 0 -89 38 -128 64 -31 21 -34 29 -15 48 8
7 19 23 26 35 10 20 8 24 -15 39 -25 17 -26 17 -54 -16 l-28 -33 -12 24 c-23
42 -38 47 -69 22z m234 -234 c51 -17 49 -15 36 -31 -6 -7 -21 -26 -32 -41 -21
-28 -22 -28 -43 -10 -11 11 -41 32 -65 47 l-43 28 -42 -22 c-23 -11 -55 -32
-71 -45 l-30 -23 -27 41 -28 42 23 6 c34 9 119 55 145 77 l24 21 56 -38 c32
-21 75 -45 97 -52z m-398 -62 c8 -18 19 -34 23 -37 4 -3 12 -15 19 -28 10 -19
8 -28 -16 -65 -15 -23 -33 -51 -39 -62 -9 -17 -23 -21 -81 -23 l-70 -3 -16 38
c-9 21 -24 51 -34 66 -14 21 -15 30 -6 35 7 4 23 32 37 62 l25 55 71 -3 c68
-4 71 -5 87 -35z m689 -31 l30 -63 -33 -59 c-18 -34 -39 -59 -48 -58 -8 0 -39
1 -67 3 -52 1 -54 2 -88 54 -19 28 -36 55 -38 59 -2 4 13 35 34 68 l37 60 71
0 71 -1 31 -63z m-510 -162 c7 -6 26 -17 43 -24 30 -12 35 -10 100 33 l69 46
27 -41 c22 -32 24 -42 13 -49 -7 -5 -18 -9 -24 -9 -16 0 -73 -29 -120 -61
l-41 -28 -41 29 c-22 17 -68 41 -103 55 -35 13 -58 24 -51 25 6 0 12 5 12 11
0 6 9 24 21 40 l20 29 32 -23 c17 -12 37 -27 43 -33z m678 -21 c22 -14 54 -30
71 -34 l32 -9 -10 -57 c-7 -39 -6 -72 2 -106 16 -69 16 -68 -36 -65 l-46 3 2
87 2 86 -38 26 c-21 14 -43 26 -50 26 -8 0 -23 6 -36 13 -12 6 -23 12 -25 13
-1 1 7 20 19 42 l22 41 26 -20 c14 -11 44 -31 65 -46z m-1110 25 c9 -17 16
-34 16 -38 0 -3 -26 -19 -57 -33 -96 -45 -97 -47 -90 -119 4 -35 9 -73 13 -84
5 -20 1 -23 -46 -29 -28 -4 -53 -5 -56 -3 -2 3 1 19 7 37 7 19 10 68 7 117 -4
78 -3 84 16 90 28 8 90 37 96 44 9 11 65 49 72 50 3 0 14 -14 22 -32z m-274
-177 c0 -49 -5 -84 -13 -96 -13 -17 -16 -17 -68 7 -30 14 -64 34 -77 46 l-23
20 31 49 c29 46 33 48 83 53 28 3 55 4 60 2 4 -2 7 -38 7 -81z m475 -26 c0
-63 -4 -115 -8 -115 -11 0 -80 -32 -87 -40 -9 -10 -86 -60 -93 -60 -7 0 -41
69 -36 73 2 2 35 18 72 36 l69 33 -4 89 c-3 96 -4 95 57 98 l30 1 0 -115z
m685 80 c-2 -16 -5 -56 -5 -88 0 -58 0 -59 40 -81 22 -13 57 -28 77 -35 l38
-12 -21 -42 c-12 -23 -23 -43 -24 -45 -2 -2 -27 15 -56 37 -30 23 -72 48 -95
57 l-41 16 0 114 -1 115 47 -3 c45 -3 46 -4 41 -33z m515 7 c2 -10 16 -30 30
-46 l25 -29 -21 -20 c-29 -27 -106 -67 -129 -67 -23 0 -40 47 -40 111 0 72 2
74 70 71 44 -3 61 -8 65 -20z m-1058 -8 c31 -15 63 -33 71 -40 7 -8 18 -14 23
-14 5 0 9 -7 9 -15 0 -8 -3 -15 -8 -15 -4 0 -18 -18 -32 -40 -22 -36 -29 -40
-67 -40 -23 0 -48 -3 -57 -6 -14 -5 -16 5 -16 79 0 77 5 117 16 117 2 0 29
-12 61 -26z m389 -30 c6 -52 1 -130 -9 -140 -3 -3 -28 -2 -56 2 -47 6 -53 10
-83 57 -31 48 -31 50 -12 64 19 15 133 72 146 73 4 0 10 -25 14 -56z m-184
-171 l12 -42 66 6 c39 3 70 2 73 -4 3 -5 -7 -35 -24 -66 l-29 -56 30 -49 c16
-27 30 -54 30 -59 0 -13 -80 -26 -111 -18 -20 5 -26 0 -38 -27 -8 -18 -23 -45
-34 -60 -23 -31 -33 -26 -72 43 l-23 42 -65 1 c-36 1 -68 4 -72 8 -9 9 18 58
51 91 27 27 27 27 8 50 -10 12 -21 24 -24 27 -3 3 -13 21 -22 40 -17 35 -17
35 8 43 15 5 37 4 56 -2 51 -18 62 -14 81 32 10 24 25 53 35 65 l17 21 18 -22
c9 -12 23 -41 29 -64z m-1026 52 c33 -29 120 -75 140 -75 8 0 14 -5 14 -10 0
-15 -31 -60 -41 -60 -5 0 -32 17 -60 37 -29 20 -63 36 -78 36 -15 0 -54 -18
-89 -41 l-61 -42 -25 33 c-31 41 -32 47 -7 47 11 0 23 5 26 10 3 6 14 10 24
10 13 0 99 54 127 79 0 1 14 -10 30 -24z m2020 0 c29 -25 126 -75 145 -75 6 0
9 -3 7 -7 -24 -50 -33 -63 -41 -63 -6 0 -39 19 -75 42 l-64 42 -36 -20 c-19
-10 -51 -31 -70 -46 -19 -16 -38 -28 -41 -28 -3 0 -17 17 -29 36 -27 41 -23
46 38 64 19 6 55 26 80 44 25 19 48 35 51 35 3 1 19 -10 35 -24z m-336 -95
c32 0 38 -5 60 -45 14 -25 28 -45 31 -45 21 0 13 -36 -19 -84 l-36 -56 -58 -2
c-32 -1 -65 -2 -72 -2 -8 -1 -28 25 -44 56 l-29 58 31 66 c31 65 31 65 66 60
19 -3 51 -6 70 -6z m-1272 -59 l31 -59 -30 -56 -31 -56 -66 0 -67 0 -27 43
c-15 23 -34 51 -43 63 -14 18 -13 22 4 41 10 11 26 34 35 51 16 31 18 32 89
32 l73 0 32 -59z m309 -9 l23 -47 -26 -50 c-13 -28 -28 -50 -32 -50 -16 0 -81
37 -113 64 l-34 29 25 27 c24 26 104 74 125 74 6 1 20 -21 32 -47z m608 19
c28 -16 59 -38 70 -50 19 -22 19 -22 -10 -47 -31 -25 -125 -78 -130 -72 -1 2
-11 21 -21 43 -10 22 -22 43 -26 46 -13 9 35 109 52 109 8 0 38 -13 65 -29z
m-1165 -183 c0 -10 -5 -18 -11 -18 -17 0 -137 -60 -150 -76 -12 -15 -49 -20
-49 -6 0 11 -133 82 -154 82 -21 0 -20 8 4 48 l21 33 27 -23 c15 -13 49 -34
74 -48 l47 -25 73 51 73 52 22 -27 c12 -14 22 -34 23 -43z m2002 27 c25 -42
26 -45 8 -45 -23 0 -160 -70 -160 -82 0 -17 -33 -7 -84 26 -29 18 -70 39 -92
47 -21 7 -40 14 -42 15 -5 3 42 74 50 74 4 0 13 -6 20 -13 27 -27 98 -67 119
-67 21 0 122 60 134 80 11 17 19 11 47 -35z m-1609 -20 c36 -25 71 -45 80 -45
28 0 35 -25 38 -135 3 -83 1 -110 -9 -109 -6 1 -26 2 -43 3 l-31 1 7 93 7 93
-77 38 c-42 21 -75 41 -73 44 2 4 10 19 17 35 8 15 16 27 17 27 2 0 32 -20 67
-45z m934 5 l22 -39 -22 -6 c-12 -4 -46 -18 -76 -33 l-53 -27 6 -91 c8 -102 6
-104 -70 -104 l-30 0 7 58 c4 31 5 82 2 113 l-6 56 64 33 c35 17 77 43 94 56
16 13 33 24 36 24 3 0 15 -18 26 -40z m-1130 -84 c1 -1 -3 -22 -8 -48 -6 -25
-9 -66 -7 -90 3 -43 3 -43 80 -81 81 -40 85 -48 50 -94 l-17 -22 -35 30 c-19
17 -61 44 -92 60 l-56 28 -1 117 0 116 42 -7 c23 -4 43 -8 44 -9z m-683 -23
c-4 -16 -8 -66 -8 -111 l-1 -84 -65 -35 c-36 -19 -76 -45 -90 -58 l-25 -24
-19 40 c-11 21 -16 42 -13 45 3 4 34 21 69 38 l63 31 0 93 0 92 48 0 c49 0 49
0 41 -27z m1139 17 c38 0 45 -4 67 -40 14 -22 28 -40 32 -40 5 0 8 -6 8 -14 0
-15 -74 -65 -128 -86 -46 -18 -52 -6 -52 104 0 76 2 87 16 82 9 -3 34 -6 57
-6z m393 -35 c8 -58 -4 -155 -19 -155 -20 0 -115 48 -138 69 l-22 20 32 48
c33 49 34 50 128 61 7 1 15 -17 19 -43z m479 -67 c-1 -84 -5 -114 -16 -119 -8
-4 -31 -15 -52 -25 -21 -11 -56 -34 -78 -52 l-39 -34 -19 43 -19 43 70 35 70
34 -4 94 -3 93 46 0 47 0 -3 -112z m690 20 l0 -93 55 -27 c30 -15 60 -27 67
-28 22 0 21 -15 -2 -65 -13 -28 -24 -45 -24 -38 -1 14 -70 63 -136 96 l-46 24
-2 112 -2 111 45 0 45 0 0 -92z m-2535 48 c19 -11 45 -27 57 -36 l22 -17 -32
-52 -32 -52 -60 3 -60 3 -3 55 c-2 30 2 72 8 93 10 34 13 37 38 30 14 -3 42
-15 62 -27z m364 -3 c7 -48 7 -102 0 -131 -6 -21 -11 -23 -63 -20 -51 3 -57 6
-70 33 -7 17 -22 39 -32 50 -18 20 -18 21 4 35 46 28 129 70 142 70 7 0 15
-17 19 -37z m1641 7 c17 -10 44 -26 61 -36 l32 -18 -36 -53 -35 -54 -56 3 -56
3 -3 40 c-2 22 -1 64 3 93 6 50 7 52 33 45 15 -3 41 -14 57 -23z m374 -7 c12
-42 14 -96 5 -130 -6 -20 -13 -23 -63 -23 l-56 0 -33 52 c-30 48 -31 51 -15
65 36 28 116 68 145 72 4 1 12 -16 17 -36z m-1734 5 c48 -24 54 -41 39 -116
-6 -28 -8 -30 -33 -21 -77 29 -81 32 -81 71 0 36 15 88 24 88 3 0 26 -10 51
-22z m-463 -190 l11 -38 74 0 c40 0 73 -2 73 -4 0 -3 -14 -32 -32 -65 -29 -55
-30 -62 -16 -78 26 -31 49 -86 39 -96 -5 -5 -36 -9 -68 -10 l-60 0 -28 -54
c-16 -29 -31 -53 -34 -53 -11 0 -51 45 -51 57 0 7 -4 13 -9 13 -5 0 -11 8 -13
18 -3 14 -14 17 -70 17 -37 0 -69 3 -73 6 -10 11 15 61 46 90 l30 28 -34 48
c-49 70 -51 80 -17 88 16 3 45 2 66 -4 39 -11 54 -8 54 13 0 6 14 34 31 61
l31 49 19 -25 c10 -13 24 -41 31 -61z m2014 6 l17 -44 68 0 c38 0 69 -4 69 -9
0 -6 -13 -34 -29 -63 l-30 -54 30 -47 c16 -26 29 -53 29 -61 0 -18 -67 -30
-110 -21 -24 5 -30 3 -30 -9 0 -22 -50 -96 -64 -96 -7 0 -25 25 -41 54 l-30
55 -42 -6 c-48 -6 -93 2 -93 18 0 24 33 79 51 84 26 8 24 19 -10 68 -44 65
-47 84 -14 91 15 4 44 2 63 -4 46 -13 43 -14 59 23 8 17 23 47 34 65 18 31 20
32 38 16 10 -9 26 -36 35 -60z m-1016 27 c8 -8 43 -27 77 -43 65 -31 69 -41
32 -81 -16 -17 -19 -16 -74 22 -34 24 -70 41 -86 41 -15 0 -50 -16 -78 -35
-60 -42 -74 -43 -89 -10 -17 38 -16 41 26 54 21 7 62 30 92 51 57 39 60 39
100 1z m-1615 -134 l30 -62 -30 -62 c-24 -51 -34 -62 -50 -58 -11 3 -45 5 -76
5 -56 0 -57 0 -78 41 -12 23 -28 48 -36 55 -11 12 -8 23 26 73 39 59 41 60 92
64 29 2 61 4 72 5 15 1 27 -13 50 -61z m1267 53 c28 0 40 -5 45 -17 4 -10 18
-35 31 -56 27 -41 28 -39 -22 -120 -23 -38 -24 -39 -92 -40 -61 -2 -69 0 -73
18 -2 11 -16 38 -31 60 -26 37 -27 42 -13 60 8 11 24 40 35 64 18 40 22 43 50
37 17 -3 48 -6 70 -6z m747 -53 l32 -63 -32 -63 c-27 -53 -35 -62 -53 -57 -12
3 -44 6 -73 6 -52 0 -52 0 -88 55 -25 38 -35 61 -30 75 3 11 10 20 14 20 4 0
17 18 30 40 19 34 26 39 49 34 15 -3 45 -1 67 4 22 6 43 10 46 11 3 1 20 -27
38 -62z m1311 54 c0 -5 16 -32 35 -60 l36 -51 -21 -22 c-11 -12 -28 -39 -37
-60 -16 -37 -19 -38 -67 -38 -28 0 -60 -3 -71 -5 -16 -4 -25 6 -49 56 -27 57
-28 63 -14 93 8 17 21 46 29 64 14 32 14 32 86 32 40 0 73 -4 73 -9z m-3030
-25 c0 -8 9 -31 21 -50 l21 -36 -21 -36 c-12 -19 -21 -42 -21 -50 0 -8 -7 -14
-17 -14 -20 0 -99 45 -131 75 l-22 21 27 26 c26 24 118 76 136 78 4 0 7 -6 7
-14z m607 -12 c26 -14 61 -39 77 -54 l29 -28 -21 -18 c-25 -21 -119 -74 -132
-74 -4 0 -19 23 -33 50 l-25 50 25 50 c14 28 26 50 29 50 2 0 25 -12 51 -26z
m1418 -16 c10 -24 23 -46 28 -49 6 -4 2 -18 -10 -35 -11 -16 -24 -41 -29 -56
l-9 -27 -50 24 c-28 14 -63 37 -79 51 l-28 27 26 25 c22 23 111 79 127 81 3 1
13 -18 24 -41z m609 7 c90 -55 100 -69 69 -97 -25 -21 -111 -68 -126 -68 -12
0 -57 75 -57 95 0 13 44 105 50 105 3 0 31 -16 64 -35z m-2802 -166 c10 -8 44
-28 77 -44 l60 -28 -2 -76 c-1 -42 2 -93 6 -113 8 -38 8 -38 -25 -38 -75 0
-77 3 -71 91 7 91 4 96 -79 138 -27 13 -48 28 -48 32 0 5 8 24 17 43 17 38 18
38 65 -5z m940 19 c33 -50 31 -63 -9 -77 -21 -7 -57 -24 -80 -37 -43 -25 -43
-25 -43 -82 0 -31 4 -72 9 -90 l10 -32 -50 0 c-32 0 -48 4 -44 10 4 6 6 57 6
114 l0 103 52 23 c51 23 119 67 125 83 5 11 8 9 24 -15z m396 -7 c20 -16 52
-37 70 -47 32 -18 33 -18 77 6 25 14 56 35 70 47 13 13 26 23 28 23 2 0 16
-18 30 -39 l26 -40 -31 -6 c-36 -8 -88 -36 -136 -72 l-32 -24 -48 34 c-26 19
-70 43 -98 53 l-51 19 24 38 c13 20 26 37 29 37 3 0 22 -13 42 -29z m757 -58
l60 -28 1 -112 0 -113 -35 0 c-20 0 -41 4 -47 8 -6 4 -10 42 -10 91 l1 85 -50
26 c-96 51 -89 41 -65 88 l22 41 31 -29 c17 -16 59 -42 92 -57z m885 12 c0 -6
-17 -17 -37 -25 -56 -20 -103 -52 -108 -75 -3 -11 -1 -53 3 -92 l8 -73 -45 0
-46 0 0 115 c0 63 4 115 8 115 18 0 116 53 148 81 l34 29 17 -33 c9 -17 17
-37 18 -42z m-3155 -72 c-4 -10 -10 -51 -12 -90 -5 -65 -4 -73 13 -80 11 -3
21 -9 24 -13 3 -3 26 -16 53 -28 26 -12 47 -27 47 -33 0 -9 -27 -68 -36 -78
-1 -1 -15 9 -31 23 -15 15 -57 41 -93 59 l-65 32 0 113 -1 112 54 0 c48 0 53
-2 47 -17z m458 7 c39 0 44 -4 74 -50 l33 -49 -33 -25 c-26 -20 -118 -66 -132
-66 -9 0 -25 79 -25 122 0 58 8 81 27 74 8 -3 33 -6 56 -6z m393 -25 c10 -53
-5 -165 -21 -165 -15 0 -94 43 -134 72 l-24 17 30 48 c25 41 35 49 69 54 72
11 73 11 80 -26z m470 19 c-3 -9 -6 -59 -6 -112 l0 -97 -32 -14 c-40 -17 -105
-58 -134 -83 -20 -18 -21 -17 -42 25 -19 38 -20 42 -5 46 9 2 44 18 77 35 l61
33 -2 91 -3 92 46 0 c38 0 45 -3 40 -16z m691 -76 l-2 -93 50 -25 c96 -49 90
-42 70 -84 -22 -46 -28 -49 -51 -28 -26 24 -91 64 -134 82 l-35 15 0 113 0
112 52 0 52 0 -2 -92z m494 78 c4 2 22 -19 40 -47 l33 -51 -25 -19 c-30 -24
-119 -69 -135 -69 -6 0 -14 17 -18 38 -7 45 -8 147 -1 154 3 3 26 2 53 -2 26
-5 50 -6 53 -4z m363 -17 c14 -69 -4 -169 -30 -169 -18 0 -84 37 -152 86 -2 1
12 25 30 53 30 46 37 50 78 54 25 2 50 4 56 5 6 1 14 -12 18 -29z m468 -81
l-3 -113 -54 -23 c-29 -13 -71 -39 -93 -57 l-39 -34 -21 42 c-15 30 -18 43 -9
46 7 2 40 17 75 33 45 22 64 37 68 55 7 25 -1 119 -12 147 -5 13 2 16 42 16
l49 0 -3 -112z m-3500 -4 c1 -85 -4 -92 -65 -86 -52 5 -77 16 -77 34 0 6 -9
23 -21 39 -17 24 -18 31 -7 42 20 20 89 57 123 66 27 7 31 5 38 -18 4 -14 8
-49 9 -77z m3628 90 c20 -5 68 -34 118 -69 1 -1 -12 -25 -30 -53 l-33 -51 -57
0 c-69 -1 -73 7 -63 116 6 62 9 73 23 69 10 -2 28 -8 42 -12z m-2287 -62 c5
-41 3 -44 -31 -66 -56 -34 -79 -38 -86 -12 -10 37 -6 95 6 103 7 4 31 15 53
24 46 19 50 16 58 -49z m285 51 c21 -10 42 -21 47 -25 6 -4 20 -16 33 -26 l22
-17 -25 -29 c-13 -16 -27 -37 -30 -46 -5 -14 -19 -19 -65 -22 l-59 -3 -6 33
c-3 18 -3 59 1 92 7 68 18 73 82 43z m384 -30 c2 -27 2 -70 0 -96 -4 -44 -7
-48 -26 -43 -11 3 -37 6 -57 6 -31 0 -38 5 -49 29 -6 16 -21 39 -32 51 -19 21
-19 22 -2 35 34 26 119 65 140 65 19 0 23 -7 26 -47z m-1154 -143 c7 0 12 -3
12 -8 0 -8 73 -42 90 -42 15 0 12 -9 -11 -46 -24 -39 -28 -40 -55 -16 -11 10
-41 31 -68 47 l-49 29 -44 -24 c-24 -12 -56 -33 -71 -46 l-27 -24 -22 37 -22
37 42 16 c23 9 66 33 96 53 l54 36 32 -25 c17 -13 37 -24 43 -24z m956 16 c9
-19 16 -45 16 -59 l0 -25 82 5 c47 4 79 2 77 -3 -3 -5 -11 -22 -19 -39 -8 -16
-23 -42 -33 -58 -17 -26 -17 -28 -1 -44 17 -17 56 -95 50 -101 -2 -1 -33 -3
-69 -3 l-65 -1 -28 -54 c-16 -31 -34 -54 -43 -54 -9 0 -29 24 -46 56 -28 52
-32 55 -62 49 -17 -3 -49 -3 -71 1 l-40 6 20 37 c11 20 31 45 45 57 22 17 24
22 11 35 -24 24 -55 73 -63 98 -7 23 -7 23 65 20 l72 -4 16 40 c18 45 41 75
58 75 6 0 19 -15 28 -34z m1132 -56 c44 -15 43 -16 -2 -88 -1 -2 -35 18 -75
43 l-72 47 -51 -27 c-28 -15 -61 -36 -72 -47 -22 -19 -22 -19 -43 10 -27 38
-26 49 2 57 35 10 101 44 132 69 l29 23 59 -38 c32 -21 74 -43 93 -49z m-2454
-30 c21 0 31 -8 43 -35 9 -19 23 -39 31 -46 15 -12 19 -49 6 -49 -5 0 -21 -22
-36 -50 -25 -46 -30 -50 -64 -50 -20 0 -53 -3 -72 -6 -34 -6 -36 -4 -54 38
-11 23 -26 49 -33 57 -8 7 -13 16 -11 20 2 3 17 34 33 69 l30 64 50 -6 c28 -3
62 -6 77 -6z m698 -1 c0 -5 12 -34 26 -63 l26 -53 -29 -62 c-18 -40 -33 -59
-41 -56 -8 3 -38 5 -67 5 -51 0 -54 2 -76 38 -13 20 -31 45 -40 56 -17 17 -16
21 22 77 l40 58 62 4 c34 2 65 4 70 5 4 1 7 -3 7 -9z m1348 -12 c6 -5 12 -14
12 -20 0 -5 11 -25 25 -43 l25 -32 -35 -52 c-19 -29 -35 -57 -35 -64 0 -7 -27
-12 -78 -13 l-77 -2 -28 62 -27 62 31 62 31 63 71 -6 c40 -4 78 -11 85 -17z
m697 -164 c-24 -51 -34 -62 -50 -58 -11 3 -43 5 -71 5 l-51 0 -36 58 -35 57
21 35 c11 19 24 37 27 40 4 3 9 13 13 22 5 14 21 18 79 20 l72 3 31 -60 30
-60 -30 -62z m-3125 133 c19 -11 40 -25 47 -31 7 -5 19 -16 28 -23 8 -7 15
-17 15 -22 0 -11 -45 -43 -106 -74 l-49 -25 -25 52 c-21 44 -23 56 -13 77 6
14 17 37 23 52 14 29 21 28 80 -6z m1400 7 c0 -8 10 -29 22 -45 18 -27 20 -33
8 -52 -8 -11 -20 -34 -28 -51 -8 -16 -16 -31 -17 -33 -5 -7 -102 52 -129 78
l-28 27 33 26 c48 36 123 76 132 70 4 -2 7 -11 7 -20z m585 7 c17 -8 52 -30
78 -48 l48 -35 -26 -27 c-22 -23 -121 -80 -139 -80 -3 0 -6 7 -6 15 0 8 -9 31
-21 52 l-21 37 21 39 c12 21 21 45 21 54 0 8 3 13 8 11 4 -2 21 -10 37 -18z
m1448 -30 l24 -49 -25 -54 -25 -54 -50 24 c-27 13 -63 37 -79 52 -28 26 -29
29 -14 42 9 8 22 19 29 25 11 10 108 64 114 64 1 0 13 -22 26 -50z m-2860
-142 c10 -9 38 -26 62 -39 l42 -23 68 49 68 48 24 -27 c12 -15 23 -33 23 -39
0 -7 -22 -20 -49 -30 -27 -9 -71 -33 -99 -52 -43 -29 -52 -32 -62 -20 -17 20
-109 71 -142 79 -34 8 -35 18 -7 63 22 36 22 36 72 -9z m1606 -10 l19 -43 -63
-29 c-80 -38 -88 -54 -75 -148 6 -39 9 -73 7 -75 -3 -2 -28 -6 -57 -10 -52 -6
-53 -6 -47 18 4 13 7 67 7 120 l0 95 54 23 c30 12 71 37 92 56 22 19 40 34 41
35 1 0 11 -19 22 -42z m407 12 c21 -17 53 -38 71 -47 31 -14 35 -14 75 10 24
14 54 35 67 46 32 28 38 27 56 -9 20 -39 19 -47 -7 -55 -29 -9 -91 -37 -98
-44 -20 -23 -73 -52 -79 -43 -11 18 -105 72 -143 83 -21 5 -38 15 -38 20 0 14
39 69 49 69 5 0 25 -14 47 -30z m678 -22 c10 -10 43 -27 72 -39 l53 -22 3
-114 3 -113 -47 0 -48 0 6 88 7 89 -32 23 c-18 12 -52 30 -76 39 l-43 16 20
44 c22 48 14 49 82 -11z m-3109 28 c8 -7 17 -25 20 -39 6 -21 2 -26 -27 -36
-18 -6 -50 -23 -70 -36 -37 -24 -38 -27 -38 -83 0 -31 4 -72 9 -90 9 -29 8
-32 -13 -32 -13 0 -37 -3 -53 -6 l-29 -6 0 121 1 121 35 12 c39 12 71 31 113
65 33 27 34 27 52 9z m1047 6 c5 -15 112 -82 129 -82 30 0 38 -24 41 -133 l3
-107 -45 0 -45 0 0 97 0 96 -55 29 c-30 15 -60 28 -67 28 -17 0 -16 15 2 50
15 29 30 38 37 22z m2722 -134 c9 -37 7 -112 -5 -147 -9 -26 -15 -30 -33 -25
-35 10 -127 65 -132 79 -3 7 8 33 23 58 26 43 31 46 78 49 28 3 53 5 56 6 4 1
9 -8 13 -20z m-4355 -39 l34 -50 -24 -17 c-42 -30 -95 -59 -121 -65 -24 -6
-27 -4 -38 43 -7 29 -9 70 -5 95 l6 45 57 0 57 -1 34 -50z m322 8 c8 -47 -9
-147 -25 -147 -15 0 -127 58 -145 75 -12 12 -9 21 20 65 l34 50 55 -2 55 -3 6
-38z m622 19 c55 -24 97 -54 97 -69 0 -5 -11 -23 -25 -41 -14 -18 -25 -39 -25
-46 0 -8 -8 -10 -25 -6 -13 3 -43 2 -65 -3 l-40 -9 0 77 c0 81 7 121 21 121 5
0 33 -11 62 -24z m382 14 c6 -10 9 -181 3 -184 -2 -1 -29 0 -61 2 -51 3 -59 7
-68 29 -5 14 -18 38 -29 53 l-20 28 35 22 c50 31 108 59 122 60 6 0 15 -4 18
-10z m673 -18 c6 -16 21 -38 33 -50 17 -19 18 -25 7 -36 -23 -23 -106 -65
-135 -68 -25 -3 -28 0 -36 47 -5 28 -6 69 -2 93 l6 42 57 0 c53 0 58 -2 70
-28z m334 -9 c2 -58 -3 -137 -11 -150 -4 -9 -26 -2 -75 23 -94 49 -103 58 -77
86 12 12 27 34 33 50 12 26 17 28 70 28 l58 0 2 -37z m631 9 c34 -16 70 -37
80 -46 17 -17 17 -19 -6 -50 -13 -17 -26 -38 -30 -48 -4 -12 -21 -17 -66 -20
l-61 -3 -6 44 c-6 39 10 151 22 151 2 0 32 -13 67 -28z m381 -3 c8 -44 7 -141
-2 -156 -6 -9 -24 -11 -60 -6 -45 5 -55 10 -67 34 -8 15 -22 35 -32 44 -12 12
-14 22 -7 32 10 16 131 82 150 83 6 0 14 -14 18 -31z m691 -17 c16 -26 31 -49
32 -52 5 -9 -120 -78 -147 -82 -28 -3 -37 20 -39 104 -2 73 3 78 68 78 56 -1
56 -1 86 -48z"/>
<path d="M2786 5388 c-3 -35 -7 -136 -8 -226 l-3 -162 81 0 80 0 11 98 c19
176 51 201 246 202 l117 0 0 -612 c0 -395 -4 -626 -11 -651 -14 -50 -46 -69
-129 -75 l-70 -5 0 -58 0 -59 390 0 390 0 0 59 0 58 -67 6 c-87 7 -100 13
-121 51 -15 28 -17 88 -20 659 l-3 629 133 -4 c118 -3 136 -5 164 -25 40 -28
60 -78 69 -168 11 -111 5 -105 97 -105 l81 0 -7 77 c-3 42 -6 143 -6 225 l0
148 -704 0 -704 0 -6 -62z"/>
<path d="M4280 5386 l0 -64 80 -4 c67 -3 83 -7 102 -26 l23 -23 3 -612 c3
-639 2 -656 -40 -678 -11 -6 -53 -13 -94 -16 l-74 -6 0 -58 0 -59 285 0 285 0
0 59 c0 65 -7 71 -77 71 -22 0 -44 10 -65 29 l-33 29 -2 579 -2 578 231 -672
231 -673 83 0 82 0 157 478 c86 262 185 563 220 667 l63 190 1 -567 c1 -396
-2 -574 -10 -591 -14 -30 -40 -44 -101 -52 l-48 -6 0 -60 0 -59 365 0 365 0 0
59 0 58 -74 6 c-89 6 -110 17 -125 58 -8 22 -11 218 -11 626 0 636 0 636 49
663 11 5 51 10 90 10 l71 0 0 65 0 65 -325 0 -324 0 -172 -522 c-94 -288 -174
-527 -178 -531 -4 -4 -72 180 -151 410 -79 230 -161 469 -182 531 l-40 112
-329 0 -329 0 0 -64z"/>
<path d="M6390 5385 l0 -65 76 0 c70 0 78 -2 105 -29 l29 -29 0 -464 c0 -255
5 -502 10 -550 28 -240 152 -365 415 -419 92 -19 336 -16 415 5 206 54 320
170 349 356 7 38 11 265 11 553 0 531 1 547 55 567 15 6 55 10 91 10 l64 0 0
65 0 65 -300 0 -300 0 0 -65 0 -65 64 0 c85 0 114 -12 131 -55 23 -53 22 -998
-1 -1075 -42 -142 -136 -204 -309 -204 -153 0 -239 44 -292 152 l-28 57 -3
517 c-2 440 -1 522 12 552 18 44 46 56 132 56 l64 0 0 65 0 65 -395 0 -395 0
0 -65z"/>
<path d="M5399 3687 c-112 -38 -173 -93 -214 -191 -24 -58 -21 -182 6 -246 26
-61 103 -134 180 -172 30 -14 106 -51 170 -81 126 -60 173 -102 185 -162 21
-113 -60 -197 -188 -197 -114 0 -185 71 -209 210 -11 60 -12 62 -42 62 -55 0
-117 -38 -138 -84 -21 -47 -23 -67 -8 -119 13 -48 61 -102 112 -128 86 -44
257 -61 382 -38 185 34 303 154 313 319 10 179 -58 260 -318 375 -201 89 -268
162 -241 263 20 73 109 123 184 101 65 -18 127 -113 127 -194 0 -20 4 -21 53
-15 133 14 191 113 127 217 -39 65 -154 103 -310 103 -83 0 -119 -5 -171 -23z"/>
<path d="M3610 3650 l0 -50 53 0 c97 0 92 27 92 -482 l0 -440 -24 -19 c-16
-13 -39 -19 -72 -19 l-49 0 0 -45 0 -45 200 0 200 0 0 44 0 43 -42 6 c-81 11
-78 -3 -77 441 0 324 3 386 13 361 7 -16 79 -225 161 -462 l148 -433 62 0 62
0 17 58 c9 31 79 246 156 477 l139 420 -2 -413 -2 -414 -24 -19 c-13 -10 -38
-19 -57 -19 -34 0 -34 -1 -34 -45 l0 -45 260 0 260 0 0 45 0 45 -49 0 c-33 0
-56 6 -72 19 l-24 19 -3 414 c-2 227 0 427 3 445 9 49 29 63 91 63 l54 0 0 50
0 50 -231 -2 -230 -3 -121 -365 c-66 -201 -123 -368 -127 -372 -4 -5 -65 161
-135 367 l-129 375 -233 0 -234 0 0 -50z"/>
<path d="M6351 3228 c-96 -260 -182 -489 -192 -510 -24 -46 -64 -78 -100 -78
-28 0 -29 -2 -29 -45 l0 -45 215 0 215 0 0 45 0 45 -48 0 c-28 0 -57 7 -71 16
-20 15 -23 23 -19 64 3 25 17 81 33 124 l28 76 190 -2 190 -3 33 -95 c18 -52
33 -107 34 -122 0 -36 -33 -58 -87 -58 l-43 0 0 -45 0 -45 270 0 270 0 0 45 0
45 -36 0 c-72 0 -87 28 -219 400 -65 184 -144 407 -175 495 l-58 160 -113 3
-114 3 -174 -473z m243 228 c4 -19 33 -120 66 -224 33 -105 60 -193 60 -196 0
-3 -67 -6 -150 -6 -82 0 -150 1 -150 3 0 2 34 100 75 218 41 118 75 220 75
227 0 26 18 10 24 -22z"/>
</g>
</svg>
