<?xml version="1.0" standalone="no"?>
<!DOCTYPE svg PUBLIC "-//W3C//DTD SVG 20010904//EN"
 "http://www.w3.org/TR/2001/REC-SVG-20010904/DTD/svg10.dtd">
<svg version="1.0" xmlns="http://www.w3.org/2000/svg"
 width="1080.000000pt" height="1080.000000pt" viewBox="0 0 1080.000000 1080.000000"
 preserveAspectRatio="xMidYMid meet">
<metadata>
Created by potrace 1.16, written by Peter Selinger 2001-2019
</metadata>
<g transform="translate(0.000000,1080.000000) scale(0.100000,-0.100000)"
fill="#000000" stroke="none">
<path d="M5372 8663 c-7 -7 -24 -13 -38 -13 -13 0 -27 -7 -30 -15 -4 -8 -14
-15 -24 -15 -10 0 -23 -7 -30 -16 -17 -20 -55 -41 -45 -24 5 8 0 7 -14 -2 -12
-7 -21 -16 -21 -20 0 -5 -7 -8 -16 -8 -9 0 -22 -7 -28 -16 -6 -8 -19 -16 -29
-18 -9 -1 -28 -12 -41 -25 -14 -13 -29 -20 -35 -16 -6 3 -11 2 -11 -3 0 -6
-13 -15 -30 -21 -16 -5 -30 -15 -30 -20 0 -6 -7 -11 -15 -11 -8 0 -25 -11 -37
-25 -11 -13 -25 -22 -30 -19 -5 4 -16 -3 -24 -15 -9 -12 -20 -19 -25 -16 -5 4
-12 -1 -15 -9 -3 -9 -13 -16 -22 -16 -9 0 -27 -12 -40 -27 -13 -16 -20 -21
-16 -13 4 8 -4 5 -18 -7 -13 -13 -30 -23 -37 -23 -7 0 -10 -4 -6 -9 6 -11 -29
-34 -38 -25 -3 3 -10 -4 -16 -15 -7 -11 -32 -30 -57 -41 -24 -12 -42 -25 -39
-30 4 -6 -1 -10 -10 -10 -8 0 -18 -7 -21 -15 -4 -8 -13 -15 -20 -15 -8 0 -17
-7 -20 -15 -4 -8 -11 -15 -18 -15 -6 0 -17 -9 -24 -20 -7 -11 -19 -20 -27 -20
-8 0 -15 -4 -15 -10 0 -5 -6 -10 -14 -10 -8 0 -18 -5 -22 -12 -5 -7 -2 -9 7
-4 8 4 5 1 -5 -6 -11 -7 -29 -22 -40 -33 -12 -11 -24 -19 -28 -18 -4 2 -16
-11 -28 -27 -12 -17 -25 -28 -30 -25 -5 3 -18 -7 -30 -22 -12 -16 -26 -28 -32
-28 -5 0 -23 -16 -40 -35 -16 -19 -26 -28 -22 -20 12 24 -43 -30 -68 -66 -21
-32 -48 -49 -32 -21 4 6 -14 -10 -39 -37 -26 -26 -47 -52 -47 -56 0 -5 -13
-17 -29 -26 -17 -10 -27 -22 -24 -27 3 -4 -5 -11 -17 -14 -12 -3 -26 -17 -31
-31 -5 -14 -12 -22 -15 -19 -6 5 -50 -34 -48 -43 0 -3 -13 -18 -30 -35 -16
-16 -26 -23 -21 -15 4 8 -6 2 -23 -15 -16 -16 -26 -32 -21 -35 5 -3 -5 -14
-21 -24 -17 -9 -27 -22 -24 -28 4 -6 2 -8 -3 -5 -12 8 -36 -17 -26 -26 3 -4
-2 -9 -11 -13 -9 -3 -13 -11 -9 -18 3 -6 2 -8 -2 -3 -9 7 -45 -20 -45 -34 0
-5 -13 -21 -29 -36 -16 -16 -28 -31 -27 -35 0 -3 -11 -16 -27 -28 -15 -12 -24
-26 -21 -32 4 -6 2 -8 -3 -5 -12 7 -36 -16 -27 -26 3 -3 -4 -10 -15 -16 -13
-7 -18 -17 -14 -28 4 -10 2 -14 -4 -10 -12 7 -36 -16 -27 -26 3 -3 -4 -10 -15
-17 -12 -6 -19 -15 -16 -20 3 -5 -3 -14 -14 -19 -11 -6 -23 -21 -27 -33 -3
-12 -20 -34 -37 -50 -17 -15 -27 -28 -22 -28 5 0 -4 -13 -20 -30 -16 -16 -25
-30 -19 -30 5 0 0 -7 -10 -15 -11 -8 -16 -15 -11 -15 4 0 -3 -9 -16 -21 -13
-11 -23 -27 -21 -34 1 -8 -7 -20 -18 -28 -11 -7 -17 -17 -13 -20 3 -4 1 -7 -6
-7 -7 0 -10 -4 -7 -9 3 -4 -3 -16 -14 -26 -11 -10 -20 -23 -20 -28 0 -5 -7
-15 -16 -21 -8 -6 -16 -18 -17 -26 -1 -8 -10 -26 -19 -39 -10 -13 -15 -28 -12
-33 4 -5 -3 -18 -15 -29 -12 -11 -21 -26 -21 -34 0 -8 -9 -24 -20 -35 -12 -12
-18 -25 -15 -31 4 -5 1 -16 -5 -24 -7 -8 -9 -15 -4 -15 5 0 3 -4 -4 -9 -7 -4
-15 -21 -17 -36 -1 -16 -9 -33 -16 -39 -8 -6 -16 -24 -17 -40 -2 -16 -10 -36
-18 -43 -8 -8 -14 -20 -14 -26 0 -7 4 -6 10 3 7 10 10 11 10 2 0 -7 -6 -15
-14 -18 -8 -3 -12 -13 -9 -24 3 -10 -3 -29 -12 -43 -9 -14 -18 -51 -20 -82 -2
-31 -10 -64 -18 -73 -8 -9 -14 -28 -13 -42 1 -14 -1 -44 -5 -68 -4 -28 -2 -46
7 -52 7 -6 56 -10 120 -8 l109 3 10 48 c6 26 17 52 25 57 13 8 13 11 1 19 -9
6 -10 10 -2 12 7 3 13 19 13 37 1 18 5 35 9 38 9 5 7 -132 -2 -141 -4 -3 -3
-20 0 -38 6 -29 10 -32 50 -35 23 -2 49 2 56 8 8 7 18 9 24 6 5 -3 11 1 15 9
3 8 11 15 18 15 9 0 8 -3 -2 -10 -8 -5 -10 -10 -4 -10 6 0 17 7 24 15 7 8 19
15 26 15 8 0 14 5 14 11 0 5 4 8 9 5 5 -3 11 1 15 9 3 8 13 15 22 15 8 0 24
10 33 21 l18 22 22 -24 c12 -13 26 -25 32 -25 5 -1 13 -2 19 -3 5 0 9 -7 7
-13 -1 -8 10 -14 26 -16 15 -2 27 -7 27 -12 0 -5 7 -6 17 -3 11 4 14 3 9 -5
-4 -7 -4 -12 1 -13 4 0 17 -3 28 -7 11 -3 86 -7 167 -8 144 -1 148 -1 165 22
10 13 27 24 38 24 11 0 26 9 33 21 7 11 19 18 26 16 8 -3 23 5 35 19 26 29 29
107 6 130 -8 9 -15 23 -15 33 0 14 6 17 25 13 15 -2 25 0 25 7 0 6 9 11 19 11
20 0 32 -20 30 -48 -1 -10 -4 -7 -9 8 -8 24 -6 -31 5 -150 3 -31 1 -39 -5 -25
-8 19 -9 19 -9 -4 -1 -16 -5 -21 -16 -17 -8 3 -14 0 -12 -6 1 -6 -4 -13 -12
-16 -9 -3 -11 0 -6 9 4 8 -3 4 -16 -9 -20 -19 -22 -24 -9 -32 18 -12 167 -13
174 -2 8 13 106 14 121 2 16 -13 35 -5 35 15 0 8 4 17 10 20 6 3 7 -1 4 -12
-5 -17 -5 -17 6 0 7 10 9 21 6 24 -3 3 3 18 14 33 11 15 17 29 15 32 -2 2 5 4
16 5 11 1 17 -2 14 -8 -4 -5 1 -12 9 -15 10 -4 16 -18 16 -39 0 -18 6 -37 13
-43 6 -5 46 -8 87 -7 41 2 79 0 85 -5 5 -5 46 -8 90 -7 71 2 80 4 80 21 0 10
-11 26 -25 35 -20 13 -23 13 -15 1 7 -12 4 -12 -15 2 -14 9 -23 22 -22 30 2 7
4 54 4 104 l-1 92 32 4 32 3 3 -100 c4 -108 3 -106 25 -109 8 -1 22 -9 31 -19
10 -9 28 -17 42 -17 13 0 24 -4 24 -10 0 -5 7 -6 17 -3 10 4 14 2 9 -5 -13
-22 31 -29 159 -27 148 3 176 6 169 17 -5 7 -1 9 32 12 6 1 19 7 28 15 9 7 16
10 16 5 0 -4 11 3 25 16 14 13 25 20 25 15 0 -4 9 0 20 10 29 26 48 27 61 4 5
-11 14 -17 19 -14 5 3 17 -3 27 -15 10 -11 25 -20 35 -20 10 0 18 -5 18 -11 0
-5 4 -8 9 -5 12 8 42 -4 37 -13 -7 -10 26 -13 182 -15 137 -2 144 -2 152 18 5
12 9 17 9 12 1 -5 7 -3 15 3 8 7 24 14 36 16 12 2 28 12 34 20 6 9 18 15 26
13 12 -2 16 16 20 97 l5 100 47 0 c26 0 44 -4 40 -9 -3 -6 -6 -55 -6 -110 -1
-83 -4 -101 -16 -101 -8 0 -21 -7 -28 -15 -12 -13 -13 -13 -6 0 4 8 -4 5 -17
-7 -12 -12 -19 -26 -15 -30 9 -9 143 -7 222 2 29 4 60 2 70 -3 26 -13 42 -5
60 30 9 17 11 27 5 24 -20 -13 -12 3 17 32 l29 29 20 -21 c11 -11 23 -37 27
-57 l6 -35 78 -2 c42 -1 118 -3 167 -4 82 -3 90 -1 90 16 0 10 -11 26 -25 35
-14 9 -21 11 -17 4 6 -9 3 -11 -7 -7 -18 7 -31 37 -17 42 12 4 15 32 4 32 -5
0 -8 23 -8 50 0 28 3 50 8 50 4 0 7 7 7 15 0 8 -4 15 -10 15 -19 0 2 28 25 33
18 3 26 -1 31 -17 7 -21 7 -21 15 -1 6 14 7 9 3 -14 -9 -47 -9 -146 0 -159 4
-7 15 -12 24 -12 10 0 25 -9 35 -20 9 -11 26 -20 36 -20 11 0 23 -5 26 -10 4
-6 11 -8 16 -5 5 4 9 -1 9 -9 0 -22 56 -33 75 -14 4 3 21 2 38 -3 18 -5 64 -9
104 -9 58 0 74 3 82 18 8 13 11 14 11 2 0 -12 3 -11 11 3 5 9 15 17 22 17 7 0
6 -4 -3 -10 -8 -5 -10 -10 -4 -10 6 0 17 6 23 14 7 8 23 17 36 20 14 4 25 11
25 16 0 6 7 10 15 10 8 0 15 4 15 10 0 5 4 9 9 7 4 -1 17 7 27 18 11 12 18 19
17 17 -3 -8 36 -40 56 -47 12 -3 21 -11 21 -16 0 -6 5 -7 10 -4 6 3 10 1 10
-4 0 -6 6 -11 14 -11 7 0 19 -7 26 -15 7 -9 19 -14 27 -11 8 3 25 -1 38 -10
14 -9 40 -14 67 -12 l43 3 0 87 c0 49 -3 88 -7 88 -4 0 -5 6 -2 14 3 7 -1 30
-10 49 -8 20 -13 47 -12 61 2 14 -3 27 -10 30 -16 6 -19 32 -5 40 5 4 7 -4 3
-16 -4 -17 -2 -20 11 -15 17 6 25 -13 25 -58 0 -11 12 -53 26 -94 15 -41 25
-83 24 -95 -3 -41 14 -84 36 -90 31 -8 199 -7 212 2 16 11 9 123 -11 165 -9
20 -15 46 -12 56 3 12 -1 22 -10 25 -9 4 -13 14 -10 26 3 11 1 23 -4 26 -5 3
-9 21 -9 41 0 21 -6 41 -16 47 -8 7 -17 28 -18 47 -2 19 -11 47 -20 61 -9 14
-16 30 -15 34 4 22 -2 35 -13 28 -7 -5 -8 -3 -3 6 4 7 3 15 -4 19 -6 4 -12 19
-13 34 -1 15 -8 27 -15 27 -12 0 -18 20 -14 43 1 5 -10 22 -23 38 -14 16 -23
36 -20 44 4 8 -1 17 -9 21 -9 3 -19 19 -22 35 -4 16 -11 27 -16 23 -8 -5 -13
9 -10 29 0 4 -4 7 -11 7 -6 0 -8 3 -5 7 4 3 1 13 -7 22 -8 9 -16 21 -18 26 -2
6 -6 9 -10 7 -5 -1 -8 4 -8 12 0 8 -7 22 -16 30 -8 9 -12 16 -7 16 4 0 -3 7
-15 16 -13 9 -21 21 -19 27 2 7 -7 20 -20 30 -13 10 -21 23 -18 28 4 5 1 9 -5
9 -6 0 -9 4 -5 9 3 5 -3 16 -12 23 -10 7 -25 22 -33 32 -13 18 -13 19 0 12 8
-4 5 1 -7 12 -12 11 -20 22 -17 24 2 3 -3 11 -13 19 -14 12 -16 12 -8 0 5 -10
4 -12 -3 -7 -7 4 -12 13 -12 21 0 8 -6 18 -12 22 -7 4 -20 17 -28 27 -13 18
-13 19 0 12 8 -5 0 5 -18 23 -18 17 -30 31 -25 31 4 1 -3 10 -17 21 -14 12
-25 26 -25 33 -1 6 -7 10 -14 8 -7 -1 -10 2 -6 8 3 5 -1 13 -9 16 -9 3 -16 12
-16 19 0 6 -13 23 -29 36 -16 13 -30 29 -32 34 -2 6 -7 9 -11 8 -3 -1 -12 11
-20 28 -7 16 -30 41 -50 54 -21 14 -37 29 -36 33 3 9 -25 52 -34 52 -12 0 -63
52 -60 61 1 5 -5 9 -13 9 -8 0 -22 12 -32 28 -18 27 -123 135 -123 125 0 -3
-7 0 -15 7 -8 7 -12 17 -8 23 3 5 2 7 -4 4 -5 -3 -35 23 -67 58 -32 36 -62 62
-67 59 -5 -3 -18 11 -30 30 -12 20 -25 34 -29 31 -4 -3 -20 11 -34 30 -15 19
-32 35 -39 35 -7 0 -18 9 -25 20 -7 11 -19 20 -26 20 -8 0 -24 14 -36 31 -12
16 -25 28 -28 25 -3 -3 -12 3 -19 14 -8 11 -18 18 -23 15 -4 -3 -15 6 -24 20
-9 14 -23 25 -32 25 -8 0 -12 5 -9 10 3 6 -2 13 -12 17 -10 4 -26 16 -36 28
-10 11 -16 14 -12 8 3 -7 1 -13 -4 -13 -6 0 -11 7 -11 15 0 8 -6 15 -14 15 -8
0 -17 7 -20 16 -3 8 -10 13 -15 10 -5 -3 -11 1 -15 9 -3 8 -12 15 -20 15 -7 0
-17 7 -20 16 -3 8 -10 13 -15 10 -5 -3 -17 6 -27 19 -10 14 -27 25 -36 25 -10
0 -17 4 -15 9 1 5 -2 9 -6 9 -5 0 -23 13 -39 29 -17 15 -28 22 -24 15 7 -11 4
-11 -13 0 -12 7 -21 16 -21 21 0 4 -11 12 -25 17 -14 5 -25 14 -25 20 0 5 -7
10 -15 10 -8 0 -24 10 -36 23 -12 12 -18 15 -14 7 8 -13 7 -13 -11 0 -10 8
-23 21 -27 28 -4 6 -17 12 -27 12 -10 0 -22 5 -26 12 -5 7 -3 8 6 3 9 -5 11
-4 6 4 -4 6 -11 9 -16 6 -5 -3 -14 0 -22 7 -7 7 -22 20 -32 28 -18 13 -19 13
-12 0 5 -8 -3 -3 -18 13 -15 15 -36 27 -46 27 -11 0 -20 5 -20 11 0 5 -13 15
-30 20 -16 6 -30 15 -30 19 0 4 -7 11 -16 14 -9 4 -13 2 -8 -5 10 -16 -29 6
-46 25 -7 9 -23 16 -36 16 -12 0 -26 5 -30 12 -5 7 -3 8 6 3 9 -6 11 -4 6 4
-5 7 -14 10 -21 7 -8 -3 -24 3 -37 13 -27 21 -49 23 -66 4z m158 -332 c0 -3 9
-12 21 -19 17 -11 20 -11 13 0 -4 7 6 1 23 -14 16 -16 36 -28 45 -28 9 0 19
-7 22 -16 4 -9 9 -14 13 -10 4 3 17 -4 30 -16 13 -12 31 -23 40 -24 9 -2 20
-10 25 -19 5 -8 13 -13 19 -10 5 4 9 1 9 -5 0 -6 5 -8 10 -5 6 3 10 -1 10 -10
0 -11 5 -15 15 -11 8 3 21 -4 29 -16 9 -12 19 -19 22 -15 4 4 18 -6 30 -21 13
-15 24 -23 24 -19 0 4 9 3 20 -3 11 -6 18 -15 15 -21 -4 -5 -1 -9 6 -9 7 0 24
-10 37 -22 14 -13 22 -16 18 -8 -4 8 3 3 16 -12 13 -16 28 -28 32 -28 5 0 15
-8 23 -17 10 -12 12 -13 8 -3 -4 10 -2 9 8 -2 8 -10 19 -18 25 -18 5 0 12 -7
16 -15 3 -8 12 -15 20 -15 7 0 16 -7 20 -15 3 -8 12 -15 20 -15 8 0 28 -17 46
-37 17 -21 28 -31 25 -23 -4 8 4 2 19 -15 14 -16 25 -26 26 -20 0 5 7 -1 16
-13 8 -12 21 -22 27 -22 7 0 18 -9 25 -20 7 -11 18 -20 25 -20 6 0 21 -14 32
-30 11 -16 25 -30 32 -30 7 0 17 -9 23 -20 6 -11 15 -18 20 -15 4 3 17 -6 28
-20 11 -13 23 -21 27 -17 5 4 5 2 2 -4 -6 -10 33 -52 51 -55 10 -2 67 -51 67
-58 -1 -14 29 -40 39 -34 6 3 8 2 3 -2 -10 -11 33 -56 46 -48 6 3 7 2 4 -4 -7
-11 33 -49 48 -44 5 1 7 -1 2 -5 -10 -10 33 -55 46 -47 6 3 7 2 4 -4 -6 -10
33 -49 45 -46 4 2 10 -6 13 -17 3 -10 15 -22 26 -25 10 -4 19 -11 19 -16 0
-11 -14 -12 -24 -1 -4 4 -13 7 -19 7 -7 0 -12 5 -12 12 0 27 -26 35 -121 38
-94 3 -99 4 -118 31 -14 19 -16 25 -6 20 8 -4 5 1 -7 12 -12 11 -20 22 -17 24
2 3 -3 11 -11 18 -14 12 -13 16 7 37 12 13 23 31 24 41 4 26 -36 63 -60 56
-15 -4 -17 -3 -7 4 11 8 11 14 -3 33 -9 13 -20 24 -24 24 -4 0 -21 15 -39 33
-17 18 -35 34 -40 35 -4 0 -16 11 -26 24 -10 13 -22 21 -27 18 -4 -3 -15 6
-24 20 -9 14 -23 25 -31 25 -7 0 -17 5 -21 12 -5 7 -2 9 7 4 8 -4 5 -1 -6 8
-11 8 -25 20 -31 25 -7 5 -15 7 -19 3 -4 -4 -5 0 -3 8 2 8 -2 14 -9 13 -7 -2
-17 6 -23 17 -6 11 -15 18 -19 16 -5 -3 -30 15 -56 39 -26 25 -52 45 -59 45
-17 -1 -53 -30 -36 -30 7 0 11 -2 8 -5 -9 -10 -38 7 -31 18 4 6 0 8 -10 4 -9
-3 -26 5 -43 21 -15 15 -24 21 -20 15 13 -24 0 -13 -22 16 -20 27 -20 31 -6
46 15 14 13 18 -15 47 -25 25 -33 29 -45 19 -12 -10 -21 -4 -50 35 -20 26 -36
43 -36 38 0 -5 -7 2 -16 14 -13 19 -24 22 -84 22 l-69 0 6 30 c6 34 -18 70
-47 70 -13 0 -20 -12 -25 -47 -5 -37 -9 -43 -16 -31 -5 10 -16 15 -25 11 -8
-3 -22 1 -32 9 -29 25 -46 33 -37 17 7 -11 5 -11 -11 1 -10 8 -23 21 -27 28
-4 6 -15 12 -23 12 -10 0 -6 10 15 32 24 26 28 36 20 56 -5 13 -7 28 -4 32 6
10 35 2 35 -9z m-222 -2 c-21 -12 -24 -44 -5 -56 6 -4 18 -19 25 -32 8 -12 9
-20 4 -17 -6 3 -19 -4 -29 -17 -21 -27 -51 -48 -38 -27 9 15 -9 7 -35 -16 -32
-27 -68 -9 -61 30 3 13 -20 26 -44 26 -12 0 -28 -12 -38 -29 -18 -30 -24 -57
-7 -31 8 12 10 9 10 -12 0 -25 -3 -28 -32 -27 l-33 1 30 8 c29 7 29 8 4 9 -35
1 -89 -18 -115 -40 -11 -11 -23 -16 -27 -13 -4 4 -14 -9 -22 -29 -8 -21 -18
-37 -21 -37 -3 0 -2 5 2 12 5 7 3 8 -5 4 -7 -5 -10 -14 -8 -20 3 -7 1 -19 -4
-27 -7 -11 -12 -10 -25 9 l-16 24 -31 -32 c-30 -30 -30 -33 -13 -45 21 -16 14
-55 -10 -55 -8 0 -14 -5 -14 -11 0 -5 -5 -7 -10 -4 -6 3 -13 -1 -16 -9 -3 -9
-12 -16 -20 -16 -8 0 -14 -6 -14 -12 0 -10 -2 -10 -9 0 -7 11 -9 11 -14 -2 -8
-20 -27 -21 -27 -2 0 29 -33 27 -61 -4 -15 -16 -32 -30 -37 -30 -5 0 -15 -7
-22 -15 -7 -8 -16 -13 -20 -10 -5 3 -15 -4 -23 -15 -7 -11 -16 -17 -20 -14 -3
3 -13 -6 -23 -21 -12 -19 -19 -23 -25 -14 -5 9 -10 5 -14 -13 -4 -16 -18 -31
-36 -38 -16 -7 -29 -19 -29 -26 0 -8 -5 -14 -11 -14 -14 0 -60 -36 -53 -42 2
-3 -8 -11 -24 -17 -15 -7 -37 -26 -47 -44 -10 -17 -20 -26 -23 -19 -4 13 35
73 46 69 11 -3 62 39 55 46 -3 4 6 11 20 16 14 6 31 19 37 30 5 11 16 18 23
15 8 -3 19 6 25 21 6 14 23 30 37 37 14 6 25 17 25 23 0 7 8 15 18 19 21 7 49
26 74 49 10 9 23 17 29 17 5 0 8 4 4 9 -3 6 11 18 31 27 20 9 38 23 41 31 3 7
9 11 13 8 5 -3 12 1 17 8 4 7 16 17 26 20 10 4 15 11 12 17 -3 5 3 10 14 10
11 0 28 11 37 25 9 14 20 23 24 20 4 -2 18 7 31 21 13 14 38 32 56 41 18 8 33
20 33 25 0 5 4 7 10 3 5 -3 19 4 30 15 12 12 27 19 35 17 7 -3 12 0 11 6 0 7
3 13 7 14 4 1 24 16 43 33 19 17 39 28 43 25 5 -2 14 2 21 10 7 8 19 15 26 15
8 0 14 5 14 10 0 6 12 15 27 21 15 6 34 15 41 22 8 6 21 12 29 13 9 2 22 9 29
16 8 8 24 14 37 15 19 2 20 1 5 -8z m115 -189 c6 0 22 -10 35 -22 14 -13 21
-16 17 -8 -8 13 -7 13 11 0 10 -8 25 -21 32 -27 7 -7 26 -13 42 -13 23 0 27
-3 23 -20 -3 -11 -9 -17 -14 -14 -5 3 -9 -2 -9 -10 0 -23 -36 -40 -44 -21 -3
8 -12 15 -21 15 -8 0 -15 5 -15 11 0 5 -4 7 -10 4 -5 -3 -10 -1 -10 4 0 6 -7
11 -15 11 -9 0 -18 6 -21 14 -3 9 -12 12 -21 9 -12 -5 -14 -3 -8 6 10 18 -27
-2 -45 -23 -7 -9 -19 -16 -26 -16 -8 0 -14 -4 -14 -10 0 -5 -7 -10 -15 -10 -9
0 -18 -6 -21 -13 -6 -16 -34 -18 -34 -3 0 5 -10 20 -22 33 -24 26 -23 30 12
34 14 2 40 14 59 28 19 14 31 18 26 10 -4 -8 5 -2 22 14 16 15 32 25 35 22 3
-3 11 2 19 11 13 16 14 16 17 1 2 -10 8 -17 15 -17z m-328 -108 c23 3 36 -1
40 -10 3 -8 0 -10 -8 -6 -6 4 -2 -4 11 -18 12 -13 22 -30 22 -36 0 -7 5 -11
12 -9 17 3 18 -43 2 -50 -8 -3 -14 -11 -14 -18 0 -7 -7 -16 -16 -19 -9 -3 -14
-13 -11 -20 3 -8 0 -19 -6 -24 -16 -12 -157 -22 -157 -11 0 18 -3 24 -17 34
-8 6 -15 18 -16 27 -2 9 -9 23 -16 32 -11 13 -10 18 3 31 9 9 16 25 16 35 0
10 7 20 15 24 8 3 15 14 15 25 0 23 25 31 63 18 15 -5 43 -7 62 -5z m692 4 c3
-3 12 -1 19 5 9 8 16 5 24 -12 8 -14 8 -19 1 -15 -19 12 -12 -10 9 -29 11 -10
20 -24 20 -32 0 -7 5 -13 11 -13 5 0 7 -4 4 -10 -3 -5 -8 -20 -10 -32 -3 -12
-8 -24 -12 -27 -15 -11 -38 -45 -26 -37 9 5 11 2 7 -8 -5 -12 -22 -14 -87 -12
-70 3 -82 6 -79 20 2 9 -4 19 -13 22 -8 3 -15 13 -15 20 0 8 -7 17 -15 20 -8
4 -15 13 -15 21 0 8 -5 11 -12 8 -7 -4 -4 1 7 10 11 9 19 21 18 26 -2 5 1 9 6
9 5 0 12 11 15 25 4 14 11 23 16 20 6 -3 10 2 10 12 0 15 8 18 56 17 30 -1 58
-4 61 -8z m-507 -192 c0 4 12 -6 26 -21 14 -15 22 -21 18 -13 -7 13 -6 13 12
0 10 -8 22 -19 25 -23 3 -4 17 -10 32 -12 18 -4 30 1 40 16 8 11 22 22 32 23
9 1 20 7 23 12 4 5 17 15 29 22 20 10 24 9 35 -8 7 -11 18 -20 25 -20 7 0 13
-9 13 -21 0 -16 -4 -19 -21 -14 -14 5 -19 4 -15 -4 4 -6 1 -9 -7 -5 -8 3 -20
-2 -27 -11 -7 -8 -19 -15 -26 -15 -8 0 -14 -5 -14 -11 0 -5 -4 -7 -10 -4 -5 3
-10 1 -10 -4 0 -6 -7 -11 -15 -11 -8 0 -15 -5 -15 -11 0 -5 -4 -8 -9 -4 -6 3
-14 -3 -20 -12 -9 -17 -10 -17 -16 0 -4 9 -13 17 -21 17 -8 0 -22 9 -31 20
-10 11 -25 20 -34 20 -9 0 -22 7 -29 15 -7 9 -19 14 -27 11 -9 -4 -11 -1 -7 6
5 7 2 9 -9 5 -9 -3 -18 0 -21 9 -3 8 1 17 9 20 8 4 15 12 15 20 0 8 5 14 11
14 5 0 7 6 3 13 -4 6 2 3 14 -7 12 -11 22 -16 22 -12z m-415 -29 c1 -5 6 -9
12 -8 7 2 11 -6 10 -17 -1 -10 -3 -17 -6 -15 -2 3 -19 -5 -38 -16 -18 -11 -33
-17 -33 -12 0 4 -5 0 -11 -9 -5 -10 -18 -18 -29 -18 -24 0 -30 -21 -34 -119
-1 -45 -5 -83 -7 -86 -3 -2 -18 -1 -34 4 -32 8 -36 22 -22 78 4 17 3 49 -1 71
-7 28 -5 46 4 63 7 13 14 20 14 14 0 -5 7 -2 14 7 7 10 22 19 34 21 12 2 30
13 41 25 13 16 20 19 24 10 2 -8 12 0 23 19 16 28 20 30 29 15 5 -9 10 -21 10
-27z m1118 -2 c5 -7 12 -11 16 -8 5 2 16 -4 26 -15 10 -11 28 -20 41 -20 13 0
26 -5 30 -12 5 -7 3 -8 -6 -3 -9 6 -11 4 -5 -4 4 -7 15 -11 24 -8 14 3 16 -9
16 -102 0 -59 -4 -109 -10 -113 -5 -4 -25 -8 -44 -8 l-33 0 7 79 c8 91 2 121
-26 121 -10 0 -18 5 -16 11 1 6 -9 13 -22 15 -14 3 -33 12 -42 20 -10 9 -23
13 -28 9 -19 -11 -12 20 9 43 21 22 48 20 63 -5z m-1413 -105 c0 -9 4 -8 10 2
7 10 10 -13 10 -75 0 -62 -3 -85 -10 -75 -8 13 -10 13 -10 -2 0 -9 -3 -18 -7
-21 -5 -2 -2 -2 5 -1 6 2 12 -1 12 -6 0 -15 -30 -12 -36 3 -2 7 -14 13 -26 14
-11 1 -32 12 -46 25 -14 13 -22 16 -18 8 4 -8 -4 -1 -18 15 -22 26 -24 32 -11
41 8 6 15 14 15 18 0 3 9 15 20 26 12 12 18 25 15 30 -4 6 15 10 44 10 34 0
51 -4 51 -12z m520 -6 c0 -7 -5 -10 -11 -6 -8 4 -9 -1 -4 -16 5 -15 4 -20 -4
-16 -7 4 -11 -1 -11 -13 0 -12 3 -21 8 -21 4 0 7 -16 7 -35 0 -19 -3 -35 -7
-35 -5 0 -8 -9 -8 -21 0 -11 5 -17 10 -14 12 7 12 3 4 -19 -4 -9 -15 -21 -26
-27 -16 -8 -19 -8 -13 1 10 17 -27 -4 -44 -24 -8 -9 -17 -13 -22 -10 -5 3 -12
-2 -15 -10 -3 -9 -11 -16 -16 -16 -6 0 -16 -7 -23 -17 -11 -15 -14 -14 -34 6
-12 12 -19 27 -15 32 4 6 0 15 -7 20 -10 6 -5 9 17 9 19 0 41 10 58 25 29 27
41 32 30 13 -4 -7 3 -4 15 7 22 19 23 26 19 110 l-4 90 48 0 c33 0 48 -4 48
-13z m549 -94 c2 -84 -2 -88 -68 -88 -50 0 -57 3 -68 25 -8 19 -8 23 0 18 7
-3 0 7 -15 23 -27 29 -25 58 4 59 7 1 12 6 11 13 -2 7 8 12 21 12 14 0 31 7
40 15 8 8 25 19 38 24 20 7 24 5 29 -18 4 -14 7 -52 8 -83z m134 104 c15 -2
17 -13 17 -90 0 -76 3 -91 20 -107 13 -12 20 -14 20 -5 0 7 14 2 34 -14 19
-14 41 -26 49 -26 30 0 25 -43 -9 -78 -11 -10 -16 -9 -26 8 -7 11 -19 20 -26
20 -7 0 -15 6 -18 14 -3 8 -13 17 -22 20 -9 3 -28 13 -42 23 -18 13 -22 14
-15 3 8 -13 5 -12 -15 1 -23 15 -25 22 -25 110 0 52 -4 101 -8 110 -8 16 -4
17 66 11z m507 -2 l-45 -7 39 -1 c28 -2 46 -10 64 -29 33 -36 36 -56 12 -78
-11 -10 -20 -14 -20 -10 0 5 -10 -1 -22 -12 -13 -12 -40 -23 -63 -25 l-40 -3
-5 45 c-8 70 0 118 18 123 10 3 37 5 62 4 l45 0 -45 -7z m-1057 -20 c14 -11
35 -20 46 -20 12 0 20 -4 19 -9 -2 -5 2 -10 7 -11 33 -6 41 -44 14 -60 -8 -5
-14 -13 -14 -17 -1 -4 -4 -18 -9 -30 -7 -21 -13 -23 -74 -22 -37 0 -61 3 -54
6 15 6 17 133 1 133 -6 0 -3 7 5 16 9 8 14 20 11 25 -11 17 22 9 48 -11z m196
-151 c13 -18 19 -29 12 -25 -14 9 -14 6 4 -38 16 -38 19 -39 108 -36 46 1 47
1 47 -29 0 -18 -5 -30 -11 -28 -6 1 -13 -6 -14 -15 -2 -10 -11 -25 -20 -34
-15 -15 -14 -18 7 -41 13 -14 23 -28 23 -31 0 -4 3 -6 8 -4 4 1 7 -14 7 -33
l0 -35 -65 0 c-43 0 -65 -4 -65 -12 0 -6 -10 -23 -22 -36 -13 -14 -17 -22 -10
-18 16 10 15 -2 -2 -20 -20 -19 -45 -18 -53 4 -4 9 -13 22 -20 27 -8 6 -15 19
-17 30 -3 17 -11 20 -52 21 -88 1 -93 2 -90 27 5 34 17 57 30 57 17 0 42 43
27 48 -6 2 -11 10 -11 19 0 8 -9 22 -20 31 -21 17 -37 82 -20 82 6 0 10 -4 10
-10 0 -13 37 -13 42 0 2 6 14 4 31 -5 37 -19 57 -10 57 26 0 17 6 32 15 35 8
4 15 14 15 24 0 10 7 21 16 24 8 3 12 10 9 16 -14 22 3 8 24 -21z m-1074 11
c-3 -5 1 -10 10 -10 9 0 26 -10 37 -22 11 -13 17 -16 13 -8 -4 8 3 5 14 -8 11
-13 42 -29 67 -35 56 -14 65 -30 30 -52 -21 -14 -28 -14 -48 -3 -13 7 -26 17
-30 22 -3 5 -13 11 -22 12 -8 1 -25 11 -37 23 -21 19 -25 20 -43 6 -12 -9 -33
-21 -49 -28 -15 -8 -24 -16 -20 -20 3 -4 -1 -7 -10 -7 -9 0 -20 -8 -26 -17 -9
-17 -12 -17 -38 -3 -28 16 -37 48 -18 62 6 4 22 8 36 8 14 0 36 11 49 25 13
14 30 23 36 21 7 -3 20 6 28 20 15 22 34 36 21 14z m2143 -32 c14 -13 21 -16
17 -8 -5 8 6 3 24 -12 18 -16 42 -28 53 -28 12 0 27 -8 34 -17 10 -15 10 -21
-3 -35 -17 -19 -53 -24 -53 -8 0 6 -6 10 -14 10 -8 0 -17 7 -20 16 -3 8 -10
13 -15 10 -4 -3 -16 3 -25 13 -24 26 -65 17 -114 -25 -9 -8 -20 -13 -23 -12
-4 2 -16 -5 -28 -16 -17 -15 -23 -16 -36 -6 -8 7 -15 19 -15 27 0 8 -5 11 -12
8 -7 -4 -5 0 4 8 10 8 15 17 11 20 -3 4 7 7 23 7 17 0 37 8 47 20 10 12 21 18
26 15 5 -2 12 2 15 11 3 8 10 13 15 10 5 -3 11 1 14 9 8 19 44 11 75 -17z
m-2335 -41 c-4 -6 -20 -22 -35 -35 -31 -26 -38 -69 -13 -78 8 -4 15 -12 15
-20 0 -8 4 -14 9 -14 15 0 6 -28 -17 -53 -12 -13 -22 -33 -22 -44 0 -18 -5
-21 -32 -18 -18 1 -52 -1 -75 -5 -31 -5 -46 -4 -54 6 -14 17 -39 19 -39 3 0
-5 -4 -8 -9 -5 -5 3 -14 -1 -21 -9 -7 -8 -17 -15 -22 -15 -6 0 17 27 50 60 34
33 66 60 72 60 5 0 10 5 10 10 0 14 131 145 153 153 9 3 17 11 17 17 0 6 5 8
10 5 6 -4 7 -12 3 -18z m2010 -54 c-2 -7 4 -13 12 -13 8 0 15 -9 15 -20 0 -11
5 -20 11 -20 5 0 8 -4 4 -9 -3 -6 4 -15 15 -21 17 -9 18 -14 7 -33 -6 -12 -18
-26 -24 -30 -7 -4 -13 -17 -13 -27 0 -27 -25 -37 -104 -41 -63 -4 -69 -2 -85
21 -11 16 -12 22 -3 16 11 -7 12 -4 3 12 -6 11 -15 22 -21 24 -17 5 -20 46 -4
59 19 16 41 54 25 45 -8 -5 -8 0 1 18 6 14 15 26 20 26 5 0 7 3 5 8 -3 4 27 5
66 2 50 -3 71 -9 70 -17z m-1389 5 c-3 -4 0 -8 5 -8 6 0 11 -11 11 -23 0 -13
9 -32 20 -42 11 -10 17 -22 14 -26 -3 -5 1 -9 8 -10 10 0 10 -2 0 -6 -6 -2
-10 -8 -7 -13 2 -4 -4 -15 -15 -25 -11 -10 -20 -28 -20 -40 0 -18 -5 -22 -27
-20 -16 1 -50 3 -78 4 -43 2 -54 7 -75 34 -14 17 -18 28 -10 23 12 -6 11 -4
-1 6 -9 7 -21 23 -28 36 -10 18 -9 23 4 28 8 3 13 10 10 14 -3 4 2 11 11 14 9
4 14 9 11 13 -15 15 19 33 62 34 25 0 55 4 66 8 25 10 45 10 39 -1z m319 -29
c27 -12 54 -49 36 -49 -7 0 -4 -8 6 -20 12 -13 14 -20 5 -20 -6 0 -10 -6 -7
-13 3 -8 -6 -27 -19 -42 -13 -15 -21 -31 -18 -36 3 -5 -2 -6 -10 -3 -8 3 -17
12 -20 20 -3 8 -15 14 -26 14 -11 0 -28 9 -37 20 -10 11 -21 20 -26 20 -5 0
-15 6 -22 14 -12 12 -12 16 3 29 9 9 22 16 27 17 6 1 9 6 8 11 -2 5 5 9 15 9
11 0 27 9 37 20 21 23 18 23 48 9z m652 -9 c10 -11 23 -20 28 -20 5 0 16 -8
24 -17 10 -12 12 -13 8 -3 -4 8 3 5 14 -8 17 -19 18 -27 9 -42 -7 -10 -16 -16
-20 -14 -5 3 -11 -2 -14 -10 -3 -9 -24 -21 -45 -26 -22 -6 -37 -15 -34 -20 3
-4 0 -10 -7 -12 -13 -5 -38 34 -38 58 0 8 -7 17 -15 20 -8 4 -15 15 -15 26 0
12 4 17 12 12 8 -5 9 -2 5 9 -4 11 -1 17 8 17 9 0 12 6 9 15 -4 9 2 18 17 24
33 13 34 13 54 -9z m-1551 -142 c-5 -8 -2 -9 9 -5 11 4 20 -1 27 -14 6 -11 15
-17 19 -14 5 3 20 -6 32 -20 18 -19 34 -25 66 -25 23 0 46 6 50 13 4 6 17 19
27 27 16 12 18 12 11 1 -5 -8 8 -2 28 13 28 22 40 25 54 17 10 -6 15 -11 10
-11 -4 0 0 -11 8 -24 15 -22 14 -24 -5 -29 -11 -3 -18 -1 -14 4 3 5 -2 6 -10
3 -9 -3 -13 -11 -9 -17 4 -6 0 -8 -9 -4 -9 3 -25 -3 -36 -13 -11 -10 -23 -16
-26 -13 -3 4 -6 1 -6 -5 0 -7 -7 -12 -15 -12 -8 0 -24 -9 -36 -21 -20 -20 -21
-20 -34 -2 -7 10 -18 19 -24 19 -6 1 -15 2 -21 3 -5 0 -10 8 -10 17 0 8 -4 13
-9 9 -5 -3 -16 2 -25 11 -9 8 -21 12 -27 8 -7 -4 -9 -3 -6 3 4 6 0 14 -9 17
-10 4 -13 2 -8 -6 5 -8 2 -9 -10 -5 -10 4 -23 7 -29 7 -7 0 -6 4 3 10 8 5 11
10 6 10 -5 0 -1 9 9 20 10 11 15 20 11 20 -4 0 -4 5 -1 10 3 6 8 10 11 10 3 0
2 -5 -2 -12z m1746 -61 c0 -7 -4 -6 -10 3 -8 13 -10 13 -10 -2 0 -9 6 -19 13
-22 6 -3 2 -3 -10 -1 -12 3 -24 1 -28 -5 -3 -5 -14 -10 -23 -10 -10 0 -23 -9
-30 -20 -7 -12 -16 -18 -21 -15 -17 10 -29 -21 -33 -82 -1 -34 0 -64 4 -68 4
-4 4 -14 1 -22 -3 -8 0 -19 8 -25 11 -8 10 -9 -4 -4 -10 3 -36 6 -58 6 -38 0
-38 0 -28 28 14 35 14 129 0 166 -11 26 -10 28 9 23 12 -3 20 0 20 8 0 13 21
25 46 25 8 0 24 9 36 20 12 10 24 17 28 15 4 -3 15 7 25 21 l16 25 25 -26 c13
-14 24 -31 24 -38z m677 48 c13 -9 20 -22 17 -30 -4 -9 0 -15 7 -16 8 0 5 -4
-6 -9 -27 -12 -43 -12 -25 0 10 7 11 10 2 10 -7 0 -15 -7 -18 -15 -4 -8 -10
-13 -14 -10 -5 3 -11 1 -15 -5 -3 -5 -14 -10 -23 -10 -10 0 -23 -9 -30 -20 -7
-12 -16 -19 -21 -16 -4 3 -16 -5 -26 -16 -17 -21 -18 -21 -32 -2 -7 10 -20 19
-29 19 -8 0 -19 6 -23 14 -5 8 -40 24 -77 37 -38 12 -61 23 -50 23 11 1 16 6
13 15 -14 37 44 48 75 14 11 -13 16 -16 12 -8 -4 8 8 1 28 -17 33 -28 41 -30
73 -23 20 5 44 18 52 29 8 12 18 19 23 16 5 -3 12 1 17 8 7 12 26 24 43 26 3
1 15 -6 27 -14z m-1683 -25 c-4 8 6 3 22 -12 16 -14 40 -28 54 -30 14 -2 24
-9 22 -16 -1 -8 2 -11 8 -7 5 3 10 2 10 -4 0 -5 8 -8 19 -6 14 3 18 -1 13 -17
-4 -15 -7 -17 -13 -6 -6 9 -9 4 -9 -14 0 -16 3 -28 8 -28 4 0 7 -18 7 -39 0
-22 -3 -37 -7 -34 -5 2 -8 -5 -8 -17 0 -13 4 -19 11 -14 8 4 9 -1 4 -16 -5
-15 -4 -20 4 -16 6 4 11 1 11 -6 0 -9 -17 -14 -49 -16 l-48 -2 8 42 c16 82 9
175 -12 163 -4 -3 -14 3 -21 15 -7 11 -20 20 -30 20 -9 0 -20 5 -23 10 -4 6
-10 8 -15 5 -4 -3 -15 -3 -23 1 -18 6 -11 43 11 61 12 10 18 8 34 -10 11 -12
16 -15 12 -7z m-346 -196 c0 -89 -2 -105 -15 -100 -8 3 -35 6 -59 6 -38 0 -44
3 -44 21 0 12 -7 27 -14 33 -8 6 -18 23 -22 39 -5 21 -3 27 10 27 9 0 16 7 16
16 0 10 6 14 15 10 8 -3 28 6 45 20 17 15 37 23 45 20 8 -3 15 -1 15 4 0 6 2
10 4 10 3 0 5 -48 4 -106z m137 98 c6 -4 12 -45 13 -92 4 -84 17 -134 31 -112
4 8 17 3 35 -13 29 -25 38 -29 66 -26 19 2 26 -54 9 -65 -8 -5 -10 -2 -5 7 4
8 1 6 -7 -3 -11 -14 -16 -15 -26 -5 -7 7 -17 12 -24 12 -7 1 -10 7 -9 15 2 8
0 12 -4 8 -4 -5 -23 4 -42 19 -20 15 -32 20 -28 12 5 -9 3 -8 -6 2 -7 9 -19
14 -25 12 -19 -7 -33 42 -27 90 3 23 2 66 -4 95 -9 52 -9 52 17 52 14 0 31 -4
36 -8z m513 -3 c42 -1 44 -2 17 -9 l-30 -8 33 -1 c21 -1 32 -6 32 -16 0 -8 5
-15 12 -15 6 0 8 -3 5 -7 -4 -3 1 -11 9 -18 14 -10 14 -15 4 -34 -6 -13 -14
-20 -17 -17 -3 3 -12 -2 -20 -12 -9 -10 -12 -11 -7 -2 4 9 -3 6 -17 -6 -13
-12 -30 -19 -36 -17 -7 3 -13 0 -13 -7 0 -6 -4 -8 -10 -5 -5 3 -10 1 -10 -5 0
-7 -6 -10 -12 -7 -7 2 -12 11 -10 21 2 9 -3 16 -10 16 -9 0 -10 2 -1 8 11 7
23 139 13 145 -3 2 1 2 8 0 8 -1 35 -4 60 -4z m396 -5 c8 -20 8 -113 0 -153
-7 -34 -40 -44 -51 -15 -3 8 -12 13 -20 10 -7 -3 -23 4 -34 15 -11 11 -23 18
-26 15 -9 -9 -33 21 -33 42 0 11 7 23 16 26 8 3 12 10 9 16 -3 5 -1 10 4 10 6
0 10 3 10 8 -4 24 5 31 44 35 23 2 49 4 58 5 9 1 20 -5 23 -14z m469 6 c9 0
17 -8 18 -17 0 -17 1 -17 7 -1 4 10 7 -32 7 -91 0 -60 -2 -109 -5 -108 -3 1
-16 -5 -29 -12 -17 -9 -21 -10 -16 -1 6 9 3 9 -13 1 -11 -6 -22 -16 -24 -21
-2 -6 -12 -12 -21 -14 -10 -1 -23 -9 -27 -17 -5 -8 -14 -14 -19 -14 -6 0 -17
-9 -25 -20 -14 -18 -15 -18 -16 -2 0 9 -4 17 -10 17 -5 0 -9 3 -8 8 1 4 -3 17
-10 30 -12 20 -11 22 13 22 15 0 43 12 63 28 20 15 32 20 28 12 -5 -8 2 -4 15
9 21 21 24 35 25 100 1 46 -2 68 -7 56 -6 -16 -8 -13 -8 14 -1 30 1 33 22 27
12 -3 30 -6 40 -6z m-2069 -22 c3 -13 6 -58 6 -100 0 -79 -16 -116 -46 -104
-7 3 -16 0 -20 -6 -5 -7 -2 -8 6 -3 8 5 11 4 6 -3 -4 -6 -13 -9 -21 -6 -8 4
-17 -1 -21 -9 -3 -9 -12 -13 -20 -10 -9 3 -14 -1 -14 -12 0 -9 -4 -14 -10 -10
-5 3 -17 -6 -26 -20 -13 -20 -19 -23 -31 -14 -8 7 -12 18 -9 24 2 7 -2 23 -11
35 -12 17 -12 21 -2 19 31 -4 50 2 66 20 9 11 21 17 28 15 6 -3 20 5 30 16 15
17 20 38 21 98 1 42 2 80 3 85 1 4 14 7 30 7 21 0 30 -6 35 -22z m159 -4 c4
-8 16 -14 26 -14 11 0 21 -7 25 -15 3 -8 14 -15 26 -15 15 0 19 -5 16 -22 -2
-13 -9 -22 -15 -20 -6 1 -11 -7 -11 -18 0 -24 -28 -40 -77 -42 -36 -1 -35 -2
12 -8 l50 -7 -62 -1 c-62 -2 -63 -2 -65 26 -4 66 -2 122 5 122 4 0 7 9 7 21 0
18 4 20 28 14 15 -3 31 -13 35 -21z m2087 3 c19 -13 40 -22 47 -20 6 2 15 -1
19 -8 5 -8 3 -9 -6 -4 -9 5 -11 4 -6 -3 4 -7 15 -12 26 -12 23 0 35 -29 15
-36 -8 -4 -15 -12 -15 -19 0 -7 -7 -16 -15 -19 -9 -3 -15 -14 -13 -23 3 -15
-6 -18 -59 -21 -60 -3 -63 -2 -69 23 -9 36 2 139 16 143 5 2 8 8 4 13 -10 17
21 9 56 -14z m411 -32 c3 -27 3 -71 1 -97 l-5 -48 -56 6 c-31 4 -60 11 -66 17
-7 7 -6 7 3 2 11 -6 12 -3 3 14 -7 11 -14 21 -17 21 -3 0 -2 -5 2 -12 4 -7 3
-8 -4 -4 -7 4 -12 13 -12 21 0 7 -6 20 -14 28 -14 13 -8 37 10 40 5 1 8 5 7 9
-2 4 13 11 32 17 19 5 42 17 51 26 9 9 26 15 38 13 17 -2 22 -12 27 -53z m150
-26 c-2 -60 1 -82 14 -103 16 -24 44 -39 30 -16 -4 6 15 -3 40 -19 26 -16 53
-27 61 -24 20 8 17 -14 -5 -36 -11 -11 -17 -21 -15 -24 2 -2 -2 -10 -11 -17
-11 -9 -15 -9 -15 -1 0 6 -11 16 -25 21 -14 5 -28 17 -31 25 -4 8 -12 15 -20
15 -8 0 -14 5 -14 11 0 6 -7 9 -15 6 -8 -4 -17 -1 -21 5 -5 7 -2 8 7 3 8 -5
11 -4 6 1 -5 5 -14 9 -20 10 -7 0 -21 2 -32 3 -17 1 -18 3 -5 12 10 7 11 12 4
15 -8 3 -8 17 -1 48 7 30 7 57 0 85 -8 30 -8 41 1 41 6 0 4 5 -4 10 -11 8 -3
10 30 8 l45 -3 -4 -76z m-2470 -76 c12 -16 12 -17 -1 -8 -9 6 -8 3 2 -7 10 -9
18 -29 18 -45 0 -49 12 -57 72 -50 58 7 98 1 98 -16 0 -6 -10 -22 -22 -35 -13
-14 -17 -22 -10 -18 22 13 12 -10 -15 -34 -17 -15 -23 -25 -15 -28 7 -2 12
-10 12 -17 0 -7 7 -15 15 -19 8 -3 12 -12 9 -21 -3 -8 -2 -15 4 -15 16 0 24
-33 10 -42 -7 -4 -37 -8 -67 -8 -57 0 -91 -23 -91 -62 0 -10 -5 -18 -11 -18
-5 0 -7 -4 -4 -10 3 -5 -1 -10 -10 -10 -10 0 -13 -5 -9 -12 5 -9 3 -9 -9 1 -9
7 -15 16 -12 20 2 4 -5 15 -16 25 -12 9 -18 24 -15 31 3 8 0 17 -6 21 -7 5 -8
2 -4 -7 4 -8 1 -6 -6 3 -11 12 -33 17 -85 19 -53 1 -70 5 -66 15 2 7 11 15 19
18 8 3 14 12 14 21 0 9 12 26 26 38 23 20 24 24 12 48 -8 14 -21 34 -31 43 -9
10 -15 21 -12 26 3 4 -2 10 -10 14 -8 3 -15 11 -14 18 0 7 3 8 5 3 5 -13 74
-7 74 6 0 5 14 3 30 -6 27 -14 30 -14 30 0 0 8 5 14 11 13 6 -2 14 3 17 11 3
9 0 11 -8 6 -15 -9 -6 9 17 37 8 9 15 22 17 30 2 14 15 38 20 38 2 0 10 -8 17
-17z m2094 -14 c-3 -4 2 -12 11 -17 12 -7 17 -21 16 -46 l-1 -36 77 -1 c42 -1
81 -1 85 0 5 1 -2 -13 -14 -31 -13 -17 -18 -28 -11 -24 8 5 10 2 6 -9 -4 -8
-14 -20 -24 -25 -23 -13 -19 -57 7 -75 12 -9 20 -21 17 -29 -3 -7 2 -19 11
-26 24 -20 1 -30 -67 -30 -61 0 -88 -16 -88 -52 0 -11 -12 -34 -27 -52 -15
-17 -24 -23 -20 -14 4 11 -4 26 -23 44 -15 15 -26 32 -24 39 8 20 -24 38 -57
31 -17 -3 -48 -3 -69 0 -31 5 -37 10 -33 25 3 10 9 19 13 19 4 0 19 17 34 38
29 42 27 67 -6 90 -10 7 -15 18 -12 24 4 6 -1 17 -10 24 -14 10 -15 17 -7 31
7 12 10 13 11 4 0 -10 9 -12 36 -8 20 4 45 2 54 -3 21 -11 56 22 44 41 -5 8
-3 10 6 4 9 -5 10 -2 6 13 -5 15 -1 25 13 34 12 7 21 21 21 32 0 15 3 16 15 6
8 -7 12 -16 10 -21z m-1021 -29 c-7 13 -6 13 11 0 11 -8 28 -23 39 -32 10 -10
23 -15 27 -12 5 2 18 -5 30 -17 17 -17 23 -19 30 -8 10 16 12 8 3 -15 -3 -9
-10 -13 -15 -10 -5 3 -9 -1 -9 -9 0 -24 -39 -28 -50 -6 -6 10 -14 18 -18 18
-20 -3 -32 3 -32 16 0 8 -9 15 -20 15 -11 0 -20 4 -20 9 0 5 -10 7 -22 4 -19
-4 -20 -3 -8 6 8 6 10 11 4 11 -6 0 -17 -7 -24 -15 -7 -8 -20 -15 -29 -15 -9
0 -22 -9 -29 -20 -7 -12 -17 -18 -22 -15 -5 3 -14 -4 -20 -16 -12 -21 -12 -21
-41 7 -32 31 -38 47 -12 37 10 -4 14 -2 9 5 -7 12 29 27 44 17 6 -3 13 1 16 9
3 9 10 13 15 10 5 -3 9 -1 9 3 0 5 9 14 21 21 17 11 20 11 14 0 -3 -7 1 -4 10
7 9 11 20 20 25 20 4 0 12 3 16 8 4 4 19 -5 32 -20 13 -16 20 -21 16 -13z
m1710 -71 c52 1 63 -1 74 -20 10 -15 10 -19 1 -14 -19 12 1 -18 23 -33 10 -7
16 -18 13 -23 -4 -5 1 -12 9 -15 19 -7 22 -25 4 -21 -7 1 -12 -4 -10 -10 1 -7
-2 -13 -8 -13 -5 0 -10 -6 -10 -14 0 -8 -7 -16 -15 -20 -8 -3 -12 -12 -9 -21
7 -18 -3 -22 -89 -29 -42 -3 -66 -2 -62 4 3 6 0 10 -8 10 -16 0 -30 27 -21 41
3 5 0 9 -5 9 -6 0 -10 4 -8 9 1 5 -7 17 -18 26 -11 9 -15 14 -9 11 11 -6 29
20 26 37 -1 4 3 7 10 7 6 0 8 3 5 7 -4 3 1 12 11 20 11 10 12 12 2 8 -12 -5
-12 -4 1 7 9 7 15 21 13 31 -1 10 2 14 8 11 6 -4 38 -6 72 -5z m-3421 -12 c-3
-4 3 -17 12 -27 9 -10 14 -23 11 -28 -3 -5 6 -19 19 -30 26 -22 25 -52 -2 -52
-8 0 -11 -4 -8 -10 3 -5 1 -10 -5 -10 -6 0 -9 -4 -5 -9 3 -5 1 -12 -5 -16 -6
-4 -8 -11 -5 -16 4 -5 2 -9 -4 -9 -6 0 -7 -7 -4 -17 5 -12 3 -14 -8 -7 -8 4
-47 11 -87 14 -40 3 -72 9 -72 13 1 5 -8 17 -20 27 -12 11 -19 23 -16 28 3 6
-1 13 -9 16 -13 5 -14 9 -3 28 7 13 11 26 10 30 -1 4 7 12 18 18 11 6 18 14
16 18 -12 20 15 36 56 34 24 -1 50 2 58 8 18 11 61 9 53 -3z m1336 -2 c39 -1
56 -7 64 -20 7 -14 7 -16 -4 -11 -8 4 -4 -1 9 -12 12 -11 22 -25 22 -31 0 -6
5 -11 11 -11 5 0 7 -4 4 -10 -3 -5 0 -10 7 -10 9 -1 7 -5 -4 -14 -10 -7 -18
-18 -18 -24 0 -5 -7 -13 -16 -16 -8 -3 -12 -10 -9 -16 3 -5 1 -10 -5 -10 -6 0
-9 -4 -5 -9 10 -17 -32 -31 -94 -31 -59 0 -67 5 -61 35 1 5 -5 14 -12 20 -17
13 -39 75 -27 75 5 0 9 9 9 19 0 10 7 22 16 25 9 3 14 12 11 19 -8 21 13 49
31 41 9 -3 41 -8 71 -9z m754 -2 c-5 -12 -3 -14 7 -8 9 6 11 4 5 -4 -4 -7 2
-22 16 -37 12 -13 18 -24 13 -24 -5 0 -2 -6 7 -13 9 -7 16 -16 16 -22 0 -5 -7
-15 -16 -22 -9 -7 -12 -13 -7 -13 5 0 -1 -11 -13 -24 -14 -15 -20 -30 -16 -37
6 -8 4 -10 -5 -4 -10 6 -12 4 -7 -9 4 -11 3 -15 -4 -10 -6 3 -43 9 -82 13 -49
4 -71 10 -69 19 1 6 -5 12 -13 12 -8 0 -16 5 -16 10 -1 6 -2 14 -3 19 0 5 -12
19 -26 31 -14 12 -19 19 -12 15 7 -4 12 0 12 9 0 9 5 16 11 16 5 0 15 13 20
30 6 17 16 27 22 23 7 -4 8 0 4 11 -6 16 -2 17 30 12 29 -4 109 10 130 23 1 0
-1 -6 -4 -16z m-1776 -10 c-4 -3 5 -16 18 -29 14 -13 25 -30 25 -39 0 -9 7
-18 16 -22 15 -5 15 -7 0 -15 -9 -5 -16 -18 -16 -28 0 -10 -5 -22 -12 -26 -7
-5 -8 -3 -3 6 5 9 4 11 -3 6 -7 -4 -12 -18 -12 -31 0 -18 -4 -23 -15 -19 -8 4
-12 11 -8 17 4 6 0 8 -10 4 -10 -3 -17 -2 -17 3 0 6 -7 10 -15 10 -9 0 -18 7
-22 16 -3 9 -12 13 -21 9 -9 -3 -13 -3 -9 1 4 4 -2 17 -13 29 -19 21 -20 23
-4 36 9 8 20 14 23 14 3 0 5 4 3 8 -1 5 1 6 6 3 5 -3 18 3 28 13 26 23 82 56
61 34z m652 -19 c17 -14 31 -23 31 -20 0 4 9 2 21 -4 11 -7 18 -14 15 -17 -3
-4 3 -12 14 -20 16 -11 18 -17 8 -33 -7 -10 -16 -16 -20 -14 -5 3 -11 -2 -14
-10 -3 -9 -10 -13 -15 -10 -5 3 -9 0 -9 -5 0 -6 -9 -11 -19 -11 -10 0 -21 -6
-24 -14 -3 -7 -15 -16 -26 -19 -17 -4 -21 -1 -21 17 0 13 -11 36 -25 52 -22
26 -23 30 -9 49 8 11 21 35 29 53 18 39 25 39 64 6z m1446 16 c-3 -5 -1 -10 4
-10 6 0 11 -5 11 -11 0 -7 7 -17 16 -23 21 -16 22 -76 1 -91 -10 -7 -17 -21
-17 -32 0 -11 -3 -22 -6 -26 -9 -9 -35 4 -29 14 3 5 -7 12 -22 15 -15 4 -33
14 -40 23 -7 9 -13 12 -13 7 0 -5 -10 3 -21 18 l-22 27 22 15 c12 9 18 20 15
26 -5 7 -1 9 9 5 9 -3 19 -1 23 4 5 9 64 49 72 49 2 0 0 -4 -3 -10z m633 -7
c27 -28 76 -57 67 -42 -4 8 4 1 19 -16 l25 -30 -27 -24 c-15 -13 -21 -20 -13
-16 9 6 12 4 7 -4 -4 -6 -11 -9 -15 -7 -4 3 -18 -4 -29 -15 -15 -13 -22 -15
-23 -7 0 10 -2 10 -6 0 -2 -7 -14 -17 -25 -23 -12 -6 -18 -7 -14 -1 3 5 -8 27
-24 47 -33 41 -37 50 -17 39 8 -5 8 -2 -2 9 -9 12 -10 17 -2 17 7 0 9 5 6 10
-3 6 1 13 9 16 9 3 14 10 11 14 -3 5 4 15 16 23 15 11 17 16 7 20 -10 4 -10 6
0 6 6 1 20 -7 30 -16z m608 -112 c-3 -4 11 -25 32 -46 20 -21 30 -35 22 -31
-13 7 -13 6 0 -6 28 -25 65 -71 51 -63 -9 5 -7 -2 5 -18 10 -15 22 -27 26 -27
4 0 5 -6 2 -14 -7 -18 -42 -9 -55 16 -5 10 -14 16 -19 13 -4 -3 -16 2 -24 11
-9 8 -16 13 -16 9 0 -3 -9 3 -21 14 -12 11 -28 17 -37 14 -9 -4 -13 -2 -9 4 4
6 0 14 -9 17 -10 4 -13 2 -9 -7 4 -6 0 -4 -8 6 -11 14 -16 15 -20 5 -4 -11 -6
-11 -6 0 -1 7 11 25 27 39 15 14 26 30 24 36 -2 6 5 3 16 -6 11 -10 23 -14 26
-9 3 5 -1 15 -10 22 -12 11 -12 15 -2 21 17 11 20 11 14 0z m-3494 -76 c3 3
16 -6 29 -20 13 -13 34 -25 46 -25 12 0 25 -5 29 -12 5 -7 3 -8 -6 -3 -9 6
-11 4 -6 -4 5 -7 14 -10 21 -7 26 10 35 -18 34 -108 -1 -65 -3 -84 -10 -66 -6
18 -7 14 -3 -17 l6 -43 -46 0 c-44 0 -46 1 -46 29 0 16 7 36 15 45 22 22 19
88 -4 106 -11 7 -17 18 -14 24 4 5 -1 7 -10 3 -11 -4 -22 1 -29 13 -7 11 -20
20 -30 20 -9 0 -19 4 -23 10 -3 5 -13 6 -21 3 -14 -5 -15 -3 -3 18 14 24 16
30 18 58 1 11 7 9 24 -7 13 -12 26 -20 29 -17z m1401 2 c4 3 7 1 7 -5 0 -7 6
-12 14 -12 8 0 16 -7 20 -15 6 -18 106 -22 106 -4 0 5 4 8 9 5 5 -3 12 1 15
10 3 8 10 13 14 10 5 -3 16 4 25 15 20 23 57 25 57 3 0 -8 4 -13 9 -10 11 7
23 -22 15 -35 -3 -5 -10 -9 -16 -9 -6 0 -5 7 3 17 13 15 12 15 -8 3 -12 -8
-20 -18 -17 -22 3 -4 -1 -5 -9 -2 -8 3 -18 1 -22 -5 -3 -6 -14 -11 -23 -11
-10 0 -23 -9 -30 -20 -7 -12 -17 -18 -22 -15 -6 4 -13 0 -16 -8 -9 -24 -40
-26 -58 -5 -9 10 -21 16 -26 13 -5 -3 -15 3 -22 15 -7 11 -20 20 -30 20 -9 0
-19 4 -23 10 -3 5 -13 6 -22 3 -12 -5 -14 -3 -8 7 6 10 4 12 -9 7 -9 -4 -14
-3 -11 2 3 5 1 13 -5 16 -7 4 -2 16 12 30 23 24 23 24 44 4 11 -10 24 -16 27
-12z m-422 13 c10 -6 19 -18 19 -26 0 -21 -40 -53 -67 -54 -12 0 -27 -9 -33
-20 -6 -11 -16 -17 -25 -14 -9 4 -16 -2 -19 -18 -9 -42 -14 -177 -8 -181 4 -2
1 -2 -6 0 -8 1 -24 3 -37 3 -22 0 -22 2 -21 108 1 66 5 109 11 108 6 -1 11 3
12 8 2 13 25 26 47 26 10 0 27 9 37 21 10 11 22 18 28 15 5 -4 15 3 21 14 12
23 15 24 41 10z m1115 -20 c-4 8 0 6 8 -4 9 -11 16 -16 16 -10 0 5 5 1 11 -8
5 -10 21 -18 34 -18 13 0 27 -5 31 -12 5 -7 2 -9 -7 -4 -8 4 -6 1 4 -8 11 -8
26 -13 35 -11 15 2 17 -10 17 -106 0 -60 -1 -105 -3 -99 -2 5 -10 3 -19 -5 -8
-8 -29 -15 -46 -15 -24 0 -28 3 -17 10 9 6 10 10 3 10 -9 0 -13 28 -15 93 -3
82 -5 92 -21 92 -10 0 -24 7 -30 15 -7 8 -19 16 -27 18 -8 2 -24 12 -34 22
-18 17 -18 20 -2 35 9 9 16 21 16 27 0 7 12 1 27 -13 14 -13 23 -17 19 -9z
m979 9 c-4 -5 0 -9 8 -9 20 0 29 -37 10 -44 -8 -3 -11 -1 -8 4 9 15 -6 12 -25
-5 -9 -8 -27 -16 -41 -19 -13 -2 -23 -9 -21 -15 2 -10 -10 -15 -29 -13 -4 1
-15 -8 -25 -20 -11 -12 -13 -18 -6 -14 9 5 12 -6 12 -47 0 -30 2 -70 5 -88 4
-29 3 -30 -4 -9 -9 24 -9 24 -10 3 -1 -20 -7 -23 -38 -23 -30 0 -35 3 -23 11
10 7 11 12 4 15 -9 4 -9 14 -1 39 7 24 7 49 0 80 -7 32 -7 46 1 49 7 3 6 9 -4
16 -12 9 -12 11 -1 8 8 -3 23 4 34 15 10 10 25 16 32 13 7 -2 26 7 40 22 40
40 110 64 90 31z m-3261 -107 c-6 -4 -11 -22 -10 -40 1 -19 -2 -36 -6 -39 -24
-14 10 -127 36 -117 7 3 25 -7 40 -21 16 -15 39 -25 57 -25 28 0 29 -1 15 -16
-18 -17 -21 -28 -6 -19 6 3 10 3 10 -2 -1 -14 -27 -43 -39 -43 -7 0 -9 -6 -6
-12 4 -7 -1 -4 -9 6 -9 11 -16 24 -16 28 0 5 -8 8 -17 6 -10 -2 -18 3 -18 12
0 8 -10 16 -22 18 -13 2 -23 8 -23 13 0 6 -4 8 -9 5 -5 -3 -11 1 -15 9 -3 8
-11 13 -18 10 -28 -10 -37 9 -27 55 10 42 7 96 -7 147 -6 23 -10 21 86 31 10
1 11 -1 4 -6z m501 -3 c35 -1 37 -2 15 -9 -22 -7 -22 -8 -4 -9 20 -1 77 -51
58 -51 -5 0 -3 -4 4 -8 14 -9 6 -42 -10 -42 -6 0 -17 -8 -25 -17 -9 -11 -11
-12 -7 -3 6 11 3 11 -12 -2 -11 -10 -36 -20 -56 -23 -32 -5 -37 -3 -45 22 -8
23 -11 94 -4 126 0 4 9 7 19 8 15 0 14 2 -3 10 -17 8 -17 9 5 4 14 -2 43 -5
65 -6z m360 1 c-29 -7 -29 -8 -4 -9 25 -1 25 -2 26 -89 2 -81 0 -88 -18 -89
-11 -1 -23 5 -26 13 -3 8 -15 14 -28 14 -13 0 -25 7 -29 15 -3 8 -14 15 -25
15 -28 0 -37 37 -14 62 12 15 13 19 3 13 -8 -4 -5 2 8 14 12 12 20 26 17 31
-5 9 35 16 90 17 l30 1 -30 -8z m525 6 c0 -15 -13 -35 -20 -31 -5 3 -8 -32 -8
-77 0 -129 0 -131 -16 -125 -13 5 -25 -2 -73 -43 -7 -6 -13 -7 -13 -3 0 4 -5
1 -10 -7 -5 -8 -14 -15 -20 -15 -6 0 -15 -6 -19 -14 -15 -24 -41 -4 -41 31 0
26 -3 30 -11 18 -9 -13 -10 -13 -6 0 2 8 17 16 33 18 16 2 39 13 51 24 12 11
26 17 32 14 16 -10 43 39 44 81 1 21 -2 55 -6 76 -8 37 -8 37 25 38 l33 2 -35
7 c-34 7 -34 7 13 9 26 0 47 -1 47 -3z m696 -3 c-14 -4 -16 -7 -6 -13 9 -6 12
-31 11 -87 -2 -70 0 -81 20 -98 13 -12 19 -14 14 -5 -8 13 -7 13 11 0 10 -8
25 -21 32 -27 14 -14 26 -17 57 -13 17 2 18 0 5 -16 -11 -13 -12 -16 -2 -10
20 12 0 -24 -26 -47 -20 -18 -21 -18 -32 2 -6 12 -15 19 -20 16 -5 -3 -12 0
-17 7 -14 22 -74 60 -99 63 -35 3 -36 6 -23 64 8 37 8 65 0 101 -6 28 -11 53
-11 55 0 4 52 12 85 12 18 1 19 0 1 -4z m549 -16 c7 -7 5 -7 -5 -2 -8 4 -2 -6
14 -23 17 -18 26 -32 21 -32 -4 0 0 -10 11 -22 10 -12 14 -18 8 -15 -7 4 -19
-4 -28 -18 -10 -15 -22 -22 -31 -19 -8 4 -15 1 -15 -5 0 -6 -11 -11 -24 -11
-13 0 -26 -7 -30 -15 -3 -8 -12 -15 -19 -15 -32 0 -52 165 -21 177 11 4 12 8
4 13 -6 4 15 5 47 2 32 -2 63 -9 68 -15z m357 -22 c9 -74 -2 -134 -25 -147
-16 -8 -23 -7 -33 6 -6 9 -16 16 -20 15 -20 -3 -53 14 -47 24 4 6 0 8 -10 4
-11 -4 -17 -1 -17 8 0 8 -6 15 -14 15 -8 0 -18 6 -22 13 -4 6 -4 9 1 5 12 -11
35 11 35 33 0 10 9 23 20 29 11 6 18 15 15 20 -3 5 12 11 32 13 85 9 80 11 85
-38z m468 35 c14 0 20 -3 14 -8 -16 -10 -18 -160 -3 -178 8 -10 8 -14 0 -14
-6 0 -11 -6 -11 -14 0 -8 -7 -16 -15 -20 -8 -3 -15 -1 -15 5 0 6 -5 7 -10 4
-6 -4 -8 -11 -4 -16 3 -5 2 -9 -3 -8 -15 4 -48 -14 -61 -33 -7 -10 -19 -18
-27 -18 -8 0 -18 -7 -23 -16 -8 -14 -10 -14 -22 1 -7 8 -10 18 -7 21 3 3 2 17
-4 31 -7 20 -6 24 9 22 26 -4 59 10 66 27 3 8 10 12 16 9 5 -3 10 -1 10 4 0 6
6 10 13 9 9 -2 12 23 12 100 0 98 1 103 20 98 11 -3 31 -6 45 -6z m-3629 -7
c1 -5 3 -50 5 -102 l3 -93 -62 7 c-71 8 -68 6 -70 33 0 11 -4 19 -8 16 -4 -2
-14 9 -22 24 -15 31 -3 63 21 55 6 -3 12 3 12 12 0 9 6 15 13 14 23 -3 34 1
57 21 23 20 49 26 51 13z m1665 -8 c10 -8 36 -19 56 -25 21 -6 37 -16 35 -22
-1 -7 5 -12 13 -13 19 0 26 -35 9 -46 -7 -4 -14 -16 -15 -26 -2 -9 -8 -19 -14
-21 -5 -2 -8 -7 -6 -11 3 -4 0 -8 -7 -8 -7 0 -37 -3 -67 -7 -38 -4 -50 -3 -40
4 8 5 11 10 5 10 -6 0 -9 23 -8 52 l1 53 -7 -45 c-8 -43 -8 -43 -9 -10 -2 45
8 81 20 74 6 -4 8 6 5 25 -6 35 0 38 29 16z m437 -36 c4 -24 5 -68 2 -96 l-6
-53 -60 0 c-40 0 -59 4 -61 13 0 6 -2 17 -2 24 -1 7 -13 25 -28 40 -22 24 -24
30 -12 41 7 7 17 13 21 13 5 1 7 5 6 10 -2 4 5 5 14 2 11 -4 14 -3 9 6 -5 8
-3 11 5 10 18 -3 50 11 68 28 21 22 35 10 44 -38z m1677 31 c23 -20 34 -24 58
-21 7 1 11 -4 10 -11 -2 -6 2 -12 7 -13 6 0 21 -8 35 -18 19 -13 21 -17 7 -17
-9 0 -17 -7 -17 -15 0 -8 -5 -15 -11 -15 -5 0 -8 -4 -4 -9 3 -5 -4 -16 -15
-24 -11 -7 -17 -17 -12 -21 4 -5 -19 -6 -51 -4 -33 2 -57 -1 -58 -7 -2 -32
-18 39 -17 80 0 54 14 118 18 80 l1 -20 8 20 c5 12 4 23 -3 27 -7 5 -5 8 5 8
9 0 26 -9 39 -20z m-824 -170 c8 0 14 -5 14 -11 0 -5 4 -7 10 -4 5 3 15 -3 22
-15 8 -12 23 -20 38 -20 15 0 35 -7 46 -16 10 -8 12 -13 4 -9 -9 4 -8 1 3 -8
17 -14 16 -16 -12 -36 -28 -20 -30 -20 -47 -4 -10 10 -22 18 -27 18 -5 0 -14
7 -20 16 -14 18 -44 32 -72 32 -28 0 -75 -20 -75 -33 0 -5 -11 -12 -25 -16
-14 -3 -25 -10 -25 -15 0 -16 -26 -10 -44 10 -17 19 -17 20 11 36 15 9 20 14
10 11 -11 -3 -15 -2 -12 4 3 6 19 10 35 10 16 0 33 6 37 13 4 6 17 19 27 27
18 13 19 13 11 0 -4 -8 2 -5 14 8 12 12 26 22 32 22 6 0 7 6 4 13 -3 6 2 2 11
-10 9 -13 23 -23 30 -23z m-3149 -18 c0 -10 2 -29 6 -43 7 -26 8 -27 81 -24
l75 2 -6 -31 c-3 -17 -14 -39 -25 -48 -11 -10 -17 -18 -12 -18 4 0 -1 -7 -12
-15 -19 -15 -19 -15 1 -30 11 -9 20 -20 20 -25 0 -6 4 -10 10 -9 15 0 26 -64
12 -73 -7 -5 -36 -7 -66 -6 -32 1 -56 -3 -58 -9 -2 -6 -13 -21 -24 -34 -21
-25 -24 -34 -8 -24 6 4 5 -2 -3 -14 -7 -12 -19 -21 -26 -21 -7 0 -10 -5 -6
-12 4 -7 3 -8 -4 -4 -7 4 -12 13 -12 19 0 7 -14 32 -31 57 l-30 45 -63 -3
c-51 -3 -64 -1 -69 13 -4 9 -3 14 2 11 5 -3 12 1 15 10 4 10 2 13 -6 8 -21
-13 4 18 39 49 33 29 33 30 13 44 -11 8 -18 19 -15 24 4 5 -5 13 -19 19 -14 5
-26 12 -26 15 0 4 5 3 12 -1 8 -5 9 -2 4 11 -15 40 66 74 94 40 16 -19 30 -10
30 20 0 13 9 30 20 38 12 8 20 19 18 25 -2 6 6 17 17 26 18 13 22 13 37 -1 9
-8 16 -22 15 -31z m2071 42 c-4 -3 2 -14 12 -24 12 -12 16 -27 13 -40 -8 -30
24 -63 48 -50 10 6 38 10 63 10 44 0 46 -1 46 -30 0 -21 -5 -30 -16 -30 -8 0
-12 -4 -9 -10 3 -5 -3 -17 -14 -26 -11 -10 -17 -24 -13 -32 4 -11 1 -13 -9 -8
-8 4 -4 -1 9 -12 12 -11 22 -25 22 -31 0 -5 6 -14 13 -18 20 -12 27 -39 14
-52 -6 -6 -36 -11 -67 -11 -56 0 -71 -8 -95 -49 -6 -10 -4 -12 4 -6 10 5 10 3
0 -12 -6 -11 -21 -26 -32 -32 -10 -7 -16 -8 -13 -3 3 6 -1 13 -9 16 -8 3 -14
11 -13 18 2 7 -3 12 -9 10 -8 -1 -13 8 -13 22 0 30 -16 36 -96 36 -35 0 -64 3
-64 8 0 4 8 18 17 31 12 18 13 22 2 17 -8 -4 1 6 19 22 17 15 32 34 32 41 0 7
5 9 12 5 7 -4 8 -3 4 5 -4 6 -12 9 -17 6 -5 -4 -9 3 -9 14 0 11 -9 25 -20 31
-11 6 -18 15 -14 21 3 5 0 16 -6 24 -6 8 -9 19 -5 25 10 16 77 12 97 -7 17
-15 19 -15 33 3 8 10 15 31 15 47 0 15 5 26 12 25 6 -2 14 6 16 17 4 20 19 35
36 35 5 0 7 -3 4 -6z m2116 -25 c11 -18 15 -29 9 -26 -6 4 -7 -7 -4 -26 4 -31
5 -31 12 -7 l7 25 1 -26 c1 -24 4 -26 34 -23 17 1 38 3 45 3 6 1 13 11 13 24
1 17 2 18 6 4 2 -9 9 -14 15 -11 7 5 8 2 3 -6 -5 -8 -1 -18 11 -27 10 -8 19
-27 20 -45 1 -21 -1 -26 -7 -17 -7 11 -16 6 -41 -20 -18 -19 -24 -28 -14 -20
11 8 17 9 13 2 -9 -14 11 -61 35 -85 10 -10 15 -24 12 -32 -6 -16 -65 -27
-103 -20 -22 5 -31 0 -45 -20 -9 -15 -15 -30 -12 -35 3 -4 -6 -17 -19 -29
l-24 -21 -25 20 c-14 11 -26 29 -26 40 0 33 -24 49 -63 42 -20 -3 -52 -2 -73
1 l-36 7 22 24 c16 17 18 24 8 28 -8 3 -3 9 15 17 15 7 28 20 29 29 3 33 -3
56 -17 64 -8 4 -20 17 -26 29 -9 16 -8 19 3 12 8 -5 7 1 -4 18 -17 26 -17 27
11 33 17 4 44 0 67 -10 35 -15 39 -14 48 2 6 10 11 20 11 23 4 30 18 60 25 55
6 -3 10 0 10 9 0 12 12 23 30 25 3 1 14 -13 24 -30z m-3136 2 c2 -6 8 -9 13
-6 5 4 20 -5 34 -19 14 -15 35 -26 46 -26 11 0 29 -5 40 -11 16 -8 18 -13 8
-25 -9 -11 -9 -14 0 -14 8 0 7 -5 -3 -15 -8 -8 -20 -15 -26 -15 -6 0 -8 -6 -5
-12 4 -7 -3 -2 -15 12 -12 14 -26 25 -31 25 -6 0 -13 5 -17 10 -8 12 -79 55
-90 55 -4 0 -1 -4 6 -9 10 -6 2 -11 -24 -16 -21 -3 -44 -15 -52 -26 -7 -11
-17 -17 -22 -14 -5 3 -13 -2 -18 -12 -5 -9 -17 -18 -27 -19 -9 -1 -14 0 -11 3
3 4 -2 15 -11 25 -14 15 -14 21 -4 27 7 5 11 12 9 17 -1 5 12 10 30 12 17 2
32 8 32 14 0 6 3 8 7 5 3 -4 13 3 21 14 11 15 17 18 22 9 6 -9 11 -7 19 8 12
22 62 24 69 3z m-320 -97 c12 -2 22 -12 22 -21 0 -9 12 -30 28 -46 15 -17 21
-27 15 -23 -9 5 -11 2 -7 -8 3 -9 11 -13 18 -9 14 8 -25 -40 -41 -50 -7 -4
-13 -19 -13 -32 0 -23 -4 -25 -42 -25 -24 0 -61 -5 -82 -10 -33 -7 -42 -6 -53
8 -7 9 -11 23 -8 29 2 7 -4 17 -13 22 -9 6 -13 11 -9 11 5 0 1 7 -7 16 -20 19
-20 29 -1 47 8 8 11 17 8 21 -4 3 -2 6 4 6 5 0 10 6 10 13 0 7 8 25 17 40 17
25 22 27 75 21 31 -3 66 -7 79 -10z m2062 -3 c48 -5 55 -9 58 -29 2 -13 10
-26 18 -29 8 -3 12 -9 9 -13 -3 -4 2 -11 10 -14 13 -5 13 -9 3 -28 -7 -12 -18
-27 -24 -33 -7 -5 -15 -23 -18 -39 -4 -15 -10 -26 -13 -22 -3 3 -11 2 -17 -3
-6 -5 -41 -12 -78 -15 -54 -5 -67 -3 -72 10 -3 9 -4 19 -1 24 2 4 -4 15 -15
25 -11 10 -20 24 -20 32 0 7 -4 13 -10 13 -17 0 -11 13 20 50 18 21 28 42 24
52 -6 21 24 39 51 31 11 -3 45 -9 75 -12z m-1359 -1 c11 -6 19 -21 19 -35 0
-13 6 -30 13 -37 24 -23 26 -56 6 -74 -10 -9 -19 -27 -19 -40 0 -13 -5 -26
-12 -30 -7 -5 -8 -3 -3 6 6 9 4 11 -5 5 -20 -12 -131 -6 -144 8 -6 7 -18 21
-26 31 -13 18 -13 19 0 12 8 -4 5 1 -7 12 -13 11 -23 28 -23 37 0 9 10 26 23
37 12 11 15 16 7 12 -8 -5 -4 6 10 23 21 27 33 32 80 35 30 2 56 5 58 6 2 1
12 -3 23 -8z m2024 -6 c20 4 42 9 48 12 20 7 49 -21 52 -51 2 -16 10 -32 19
-37 18 -10 13 -46 -10 -63 -9 -6 -14 -17 -10 -23 4 -6 -2 -20 -13 -31 -16 -16
-29 -18 -83 -14 -72 6 -100 17 -92 37 3 8 -3 20 -13 27 -33 24 -34 46 -5 81
15 18 20 28 12 23 -13 -8 -13 -7 0 11 25 34 43 45 51 33 4 -8 20 -9 44 -5z
m-1699 -3 c-3 -5 3 -20 14 -33 11 -14 17 -28 13 -31 -3 -4 -1 -13 6 -20 13
-16 7 -39 -23 -82 -12 -16 -21 -31 -22 -33 -1 -1 -9 0 -18 4 -9 3 -14 10 -11
14 3 5 -5 12 -17 15 -13 4 -33 17 -46 29 -13 11 -27 20 -30 19 -4 -2 -7 6 -7
17 0 11 4 20 8 19 4 0 22 12 40 26 18 14 37 29 42 33 12 9 48 31 53 32 2 0 1
-4 -2 -9z m637 -27 c4 -8 16 -14 26 -14 11 0 22 -7 25 -16 3 -8 10 -13 15 -9
6 3 15 -4 21 -15 9 -17 8 -27 -5 -46 -16 -24 -32 -34 -19 -11 4 6 -1 5 -12 -4
-10 -9 -29 -20 -42 -24 -12 -3 -20 -10 -17 -15 3 -4 -3 -11 -12 -14 -21 -8
-41 11 -47 44 -2 14 -9 24 -15 23 -17 -4 -13 54 4 61 8 3 15 17 15 31 0 14 5
25 11 25 5 0 7 5 3 11 -4 7 2 6 17 -1 13 -7 28 -19 32 -26z m-2095 9 c10 -10
25 -19 33 -21 8 -2 18 -10 22 -18 5 -8 12 -12 17 -9 12 8 33 -33 26 -51 -3 -8
-15 -14 -26 -14 -12 0 -18 -4 -15 -10 3 -5 -6 -12 -21 -16 -15 -4 -35 -15 -45
-25 -21 -21 -49 -25 -49 -8 0 5 6 7 13 3 6 -4 5 1 -4 12 -9 10 -20 29 -23 42
-4 12 -12 22 -17 22 -5 0 -9 7 -9 15 0 8 5 15 11 15 5 0 7 5 4 10 -3 6 -1 10
4 10 6 0 11 5 11 12 0 14 30 48 42 48 4 0 16 -8 26 -17z m3548 9 c17 -12 60
-76 60 -90 -1 -6 -14 -28 -29 -47 -15 -19 -25 -40 -22 -45 11 -18 -15 -10 -35
10 -11 11 -27 20 -35 20 -8 0 -15 5 -15 12 0 6 -3 8 -7 5 -3 -4 -12 1 -19 11
-7 9 -17 17 -23 17 -6 0 -11 4 -11 8 -1 11 36 57 42 52 2 -3 20 9 38 25 36 32
39 34 56 22z m-2991 -152 c-3 -5 0 -10 8 -10 8 0 26 -9 39 -20 14 -10 28 -17
31 -14 3 3 12 -3 19 -15 7 -12 20 -21 30 -21 9 0 18 -5 20 -10 4 -12 68 16 80
34 4 6 11 11 16 11 5 0 17 8 26 18 20 20 63 19 59 -1 -2 -6 2 -12 8 -12 8 0 7
-6 -2 -17 -12 -14 -12 -16 1 -9 8 4 6 0 -5 -8 -11 -9 -25 -14 -32 -12 -7 3
-15 1 -18 -4 -4 -6 -13 -10 -22 -10 -9 0 -22 -8 -29 -17 -7 -10 -16 -18 -21
-18 -4 0 -21 -9 -36 -19 -28 -19 -28 -19 -43 3 -9 12 -20 19 -25 16 -5 -4 -12
1 -15 9 -3 9 -10 13 -15 10 -5 -3 -9 0 -9 5 0 6 -5 11 -11 11 -6 0 -22 9 -36
20 -14 11 -31 20 -37 20 -6 -1 0 -7 14 -15 14 -8 21 -14 15 -14 -14 0 -62 28
-49 29 7 0 15 10 19 23 4 12 8 25 10 30 1 4 3 9 4 12 0 3 4 5 7 5 3 0 2 -4 -1
-10z m-365 -44 c9 -12 10 -17 3 -12 -7 4 -13 3 -13 -1 0 -5 6 -15 13 -22 7 -8
7 -11 1 -8 -14 8 -74 -21 -91 -42 -6 -9 -14 -13 -18 -9 -4 3 -15 -1 -26 -10
-14 -12 -19 -30 -19 -68 0 -28 3 -54 7 -57 12 -13 9 -57 -4 -57 -7 0 -13 -4
-13 -8 0 -4 -15 -6 -34 -4 l-33 4 13 36 c16 44 17 92 4 147 -6 28 -6 42 3 47
18 12 29 9 22 -4 -4 -7 0 -5 8 4 8 10 17 15 20 11 4 -3 7 -1 7 5 0 7 8 12 18
12 9 0 23 9 30 20 7 12 17 18 22 15 5 -3 17 5 27 18 18 25 21 24 53 -17z
m2795 -9 c-14 -8 -15 -11 -4 -19 10 -7 8 -8 -7 -3 -13 3 -26 -1 -34 -10 -7 -8
-19 -15 -26 -15 -8 0 -14 -5 -14 -12 0 -6 -3 -9 -6 -5 -4 3 -13 -1 -21 -9 -8
-8 -19 -12 -23 -9 -5 3 -14 -3 -19 -14 -13 -23 -31 -22 -55 2 -10 9 -22 15
-26 12 -5 -3 -14 4 -20 15 -6 11 -19 20 -30 20 -10 0 -22 5 -25 10 -4 6 -10 8
-15 5 -13 -8 -41 6 -34 17 4 6 0 14 -7 19 -11 7 -10 9 4 9 10 0 16 4 13 9 -6
8 15 21 34 21 5 0 16 -8 26 -17 10 -10 21 -18 26 -18 5 0 12 -5 16 -11 4 -6
22 -18 40 -27 36 -17 57 -11 101 30 13 12 28 20 32 17 4 -2 13 5 19 16 l11 21
31 -22 c27 -20 28 -23 13 -32z m406 8 c5 4 18 -4 29 -17 11 -13 19 -19 20 -14
0 5 12 -1 27 -15 14 -13 23 -17 19 -9 -4 8 0 6 8 -4 9 -11 16 -17 16 -13 0 5
6 2 14 -5 9 -9 11 -17 4 -25 -13 -16 -8 -166 6 -175 6 -4 0 -8 -14 -8 -14 0
-36 -3 -50 -6 -21 -6 -23 -4 -12 7 6 7 12 22 11 34 -1 17 -2 17 -9 -5 -5 -15
-6 9 -3 57 4 59 2 87 -7 98 -7 8 -16 12 -21 10 -4 -3 -17 3 -29 15 -11 11 -20
18 -20 15 0 -3 -10 0 -22 7 -13 7 -30 11 -38 10 -10 -1 -11 1 -2 4 6 3 12 14
12 25 0 11 6 28 12 39 12 19 13 19 26 -5 7 -14 17 -23 23 -20z m-2100 0 c5 0
13 -5 17 -12 8 -12 62 -37 75 -35 4 1 6 -4 5 -10 -2 -7 5 -12 15 -10 19 3 20
-3 17 -101 -1 -36 4 -65 12 -75 9 -11 10 -14 1 -8 -8 4 -13 1 -13 -9 0 -9 4
-14 9 -11 5 3 12 -1 15 -10 3 -8 2 -12 -4 -9 -6 3 -10 0 -10 -7 0 -9 -2 -10
-8 -2 -4 7 -18 14 -32 15 -24 4 -25 6 -25 91 0 82 -5 101 -26 104 -5 1 -14 2
-20 3 -5 0 -7 6 -4 11 3 6 2 10 -4 10 -5 0 -22 5 -38 12 -15 6 -35 10 -43 9
-11 -1 -12 1 -3 6 8 6 9 14 3 23 -6 10 -3 21 8 33 16 18 17 18 30 0 7 -10 17
-18 23 -18z m988 -1 c12 -15 21 -32 21 -38 0 -7 -4 -6 -9 2 -6 10 -10 10 -21
-3 -7 -8 -21 -15 -31 -15 -11 0 -27 -9 -36 -19 -9 -11 -20 -18 -24 -16 -16 11
-28 -26 -30 -96 -1 -42 1 -81 4 -86 9 -14 -15 -23 -59 -23 l-35 0 8 48 c4 26
6 65 5 87 -2 22 -4 51 -5 65 -2 20 3 25 23 26 15 0 24 5 22 13 -1 7 2 10 8 6
6 -3 17 1 26 9 9 9 20 14 24 11 5 -3 14 4 20 15 6 11 15 18 19 15 5 -3 11 2
15 10 8 23 32 18 55 -11z m-2739 -108 c0 -8 7 -22 16 -30 8 -9 12 -16 7 -16
-4 0 -2 -4 6 -9 24 -15 21 -45 -6 -65 -16 -12 -23 -14 -18 -5 5 8 1 7 -12 -3
-11 -10 -27 -18 -36 -18 -9 0 -20 -6 -24 -13 -4 -8 -16 -16 -25 -20 -14 -5
-18 -1 -18 21 -1 15 -2 60 -3 100 l-2 72 58 0 c43 0 57 -4 57 -14z m338 -8 c6
-23 6 -23 12 2 4 14 6 -13 5 -60 -3 -114 -3 -120 -16 -120 -5 0 -8 4 -5 9 4 5
-3 7 -14 4 -12 -3 -22 1 -26 11 -3 9 -13 16 -22 16 -9 0 -27 10 -41 23 -21 18
-23 19 -11 2 15 -20 14 -20 -8 -1 -23 20 -30 56 -11 56 6 0 9 7 5 15 -3 9 0
15 9 15 8 0 14 3 13 8 0 4 2 15 6 25 6 12 20 17 53 17 38 0 46 -3 51 -22z
m655 -4 c4 -8 16 -14 26 -14 10 0 24 -7 31 -15 7 -9 15 -13 18 -10 3 2 14 -5
24 -17 17 -20 18 -24 4 -34 -9 -6 -16 -15 -16 -20 0 -5 -10 -15 -21 -23 -18
-10 -19 -15 -8 -22 9 -6 -1 -9 -31 -9 -25 0 -55 -3 -67 -6 -22 -6 -22 -5 -18
82 2 49 5 95 6 102 3 15 41 5 52 -14z m416 -75 l-1 -101 -56 4 c-51 3 -58 5
-63 28 -3 14 -10 24 -17 23 -7 -2 -12 6 -12 16 0 11 -4 22 -10 26 -12 8 -1 35
13 32 7 -1 11 4 9 11 -1 8 2 11 7 8 5 -4 12 -2 16 4 3 5 14 10 24 10 10 0 28
9 41 20 43 38 49 28 49 -81z m644 95 c26 -4 44 -11 41 -15 -3 -5 -1 -9 5 -9 6
0 13 -11 17 -24 3 -14 12 -27 20 -30 12 -4 12 -10 4 -26 -6 -11 -16 -19 -23
-17 -7 1 -11 -3 -10 -10 1 -6 -11 -14 -27 -18 -17 -4 -30 -10 -30 -13 0 -8
-49 -32 -64 -32 -6 0 -4 5 4 10 8 5 10 10 3 10 -6 0 -9 9 -5 22 3 11 1 19 -4
16 -5 -4 -9 22 -9 58 0 50 3 64 15 65 10 0 8 3 -5 9 -20 8 -20 9 1 9 12 1 42
-2 67 -5z m402 -36 c6 -35 1 -96 -11 -140 -6 -22 -32 -24 -40 -4 -3 8 -12 12
-20 9 -8 -3 -14 0 -14 6 0 6 -5 11 -11 11 -7 0 -17 7 -23 16 -6 8 -20 17 -31
18 -24 4 -23 46 0 59 9 4 13 12 10 18 -4 5 -1 9 4 9 6 0 10 3 10 8 -5 29 3 33
60 31 l60 -2 6 -39z m633 16 c7 -8 18 -14 24 -14 6 0 20 -8 31 -17 12 -10 17
-12 12 -4 -4 7 7 3 24 -10 28 -20 30 -25 17 -35 -9 -6 -16 -14 -16 -18 0 -3
-9 -15 -20 -26 -11 -11 -17 -25 -15 -32 4 -10 -12 -13 -60 -15 l-65 -1 0 68
c0 37 3 82 6 99 6 26 10 30 27 25 12 -4 27 -13 35 -20z m405 19 c-7 -2 -13 -9
-13 -14 0 -6 4 -8 9 -5 14 9 21 -20 21 -84 0 -87 -2 -90 -74 -90 -39 0 -56 3
-47 9 11 7 9 11 -8 20 -11 7 -21 21 -21 31 0 11 -4 20 -10 20 -5 0 -10 7 -10
16 0 9 -5 12 -12 8 -9 -5 -9 -3 1 9 7 9 17 14 22 11 5 -3 9 0 9 6 0 6 4 9 9 5
6 -3 14 2 19 10 5 9 15 17 23 18 8 2 25 10 39 20 13 9 31 17 40 16 10 0 11 -2
3 -6z m693 -2 c-4 -5 3 -15 14 -21 11 -6 18 -15 15 -21 -4 -5 -2 -9 4 -9 18 0
24 -48 8 -64 -8 -8 -17 -12 -21 -9 -3 4 -17 -4 -31 -17 -14 -13 -25 -20 -25
-15 0 4 -8 1 -17 -7 -38 -32 -50 -29 -62 17 -12 47 -14 114 -6 138 4 9 25 14
66 16 39 1 59 -2 55 -8z m360 -4 c9 -9 10 -106 1 -149 -6 -29 -11 -36 -25 -31
-9 3 -23 13 -29 21 -7 9 -16 12 -20 9 -4 -4 -20 5 -37 20 -17 16 -24 20 -16 8
l15 -20 -25 20 c-40 32 -41 38 -7 74 18 19 26 31 19 26 -12 -6 -12 -3 -2 15
11 20 18 22 66 18 30 -3 57 -7 60 -11z"/>
<path d="M2786 5388 c-3 -35 -7 -136 -8 -226 l-3 -162 81 0 80 0 11 98 c19
176 51 201 246 202 l117 0 0 -612 c0 -395 -4 -626 -11 -651 -14 -50 -46 -69
-129 -75 l-70 -5 0 -58 0 -59 390 0 390 0 0 59 0 58 -67 6 c-87 7 -100 13
-121 51 -15 28 -17 88 -20 659 l-3 629 133 -4 c118 -3 136 -5 164 -25 40 -28
60 -78 69 -168 11 -111 5 -105 97 -105 l81 0 -7 77 c-3 42 -6 143 -6 225 l0
148 -704 0 -704 0 -6 -62z"/>
<path d="M4280 5386 l0 -64 80 -4 c67 -3 83 -7 102 -26 l23 -23 3 -612 c3
-639 2 -656 -40 -678 -11 -6 -53 -13 -94 -16 l-74 -6 0 -58 0 -59 285 0 285 0
0 59 c0 65 -7 71 -77 71 -22 0 -44 10 -65 29 l-33 29 -2 579 -2 578 231 -672
231 -673 83 0 82 0 157 478 c86 262 185 563 220 667 l63 190 1 -567 c1 -396
-2 -574 -10 -591 -14 -30 -40 -44 -101 -52 l-48 -6 0 -60 0 -59 365 0 365 0 0
59 0 58 -74 6 c-89 6 -110 17 -125 58 -8 22 -11 218 -11 626 0 636 0 636 49
663 11 5 51 10 90 10 l71 0 0 65 0 65 -325 0 -324 0 -172 -522 c-94 -288 -174
-527 -178 -531 -4 -4 -72 180 -151 410 -79 230 -161 469 -182 531 l-40 112
-329 0 -329 0 0 -64z"/>
<path d="M6390 5385 l0 -65 76 0 c70 0 78 -2 105 -29 l29 -29 0 -464 c0 -255
5 -502 10 -550 28 -240 152 -365 415 -419 92 -19 336 -16 415 5 206 54 320
170 349 356 7 38 11 265 11 553 0 531 1 547 55 567 15 6 55 10 91 10 l64 0 0
65 0 65 -300 0 -300 0 0 -65 0 -65 64 0 c85 0 114 -12 131 -55 23 -53 22 -998
-1 -1075 -42 -142 -136 -204 -309 -204 -153 0 -239 44 -292 152 l-28 57 -3
517 c-2 440 -1 522 12 552 18 44 46 56 132 56 l64 0 0 65 0 65 -395 0 -395 0
0 -65z"/>
<path d="M5399 3687 c-112 -38 -173 -93 -214 -191 -24 -58 -21 -182 6 -246 26
-61 103 -134 180 -172 30 -14 106 -51 170 -81 126 -60 173 -102 185 -162 21
-113 -60 -197 -188 -197 -114 0 -185 71 -209 210 -11 60 -12 62 -42 62 -55 0
-117 -38 -138 -84 -21 -47 -23 -67 -8 -119 13 -48 61 -102 112 -128 86 -44
257 -61 382 -38 185 34 303 154 313 319 10 179 -58 260 -318 375 -201 89 -268
162 -241 263 20 73 109 123 184 101 65 -18 127 -113 127 -194 0 -20 4 -21 53
-15 133 14 191 113 127 217 -39 65 -154 103 -310 103 -83 0 -119 -5 -171 -23z"/>
<path d="M3610 3650 l0 -50 53 0 c97 0 92 27 92 -482 l0 -440 -24 -19 c-16
-13 -39 -19 -72 -19 l-49 0 0 -45 0 -45 200 0 200 0 0 44 0 43 -42 6 c-81 11
-78 -3 -77 441 0 324 3 386 13 361 7 -16 79 -225 161 -462 l148 -433 62 0 62
0 17 58 c9 31 79 246 156 477 l139 420 -2 -413 -2 -414 -24 -19 c-13 -10 -38
-19 -57 -19 -34 0 -34 -1 -34 -45 l0 -45 260 0 260 0 0 45 0 45 -49 0 c-33 0
-56 6 -72 19 l-24 19 -3 414 c-2 227 0 427 3 445 9 49 29 63 91 63 l54 0 0 50
0 50 -231 -2 -230 -3 -121 -365 c-66 -201 -123 -368 -127 -372 -4 -5 -65 161
-135 367 l-129 375 -233 0 -234 0 0 -50z"/>
<path d="M6351 3228 c-96 -260 -182 -489 -192 -510 -24 -46 -64 -78 -100 -78
-28 0 -29 -2 -29 -45 l0 -45 215 0 215 0 0 45 0 45 -48 0 c-28 0 -57 7 -71 16
-20 15 -23 23 -19 64 3 25 17 81 33 124 l28 76 190 -2 190 -3 33 -95 c18 -52
33 -107 34 -122 0 -36 -33 -58 -87 -58 l-43 0 0 -45 0 -45 270 0 270 0 0 45 0
45 -36 0 c-72 0 -87 28 -219 400 -65 184 -144 407 -175 495 l-58 160 -113 3
-114 3 -174 -473z m243 228 c4 -19 33 -120 66 -224 33 -105 60 -193 60 -196 0
-3 -67 -6 -150 -6 -82 0 -150 1 -150 3 0 2 34 100 75 218 41 118 75 220 75
227 0 26 18 10 24 -22z"/>
</g>
</svg>
